<?xml version="1.0" encoding="UTF-8" standalone="no" ?>
<COLLADA xmlns="http://www.collada.org/2005/11/COLLADASchema" version="1.4.1">
    <asset>
        <contributor>
            <authoring_tool>SketchUp 24.0.553</authoring_tool>
        </contributor>
        <created>2026-09-28T15:10:40Z</created>
        <modified>2026-09-28T15:10:40Z</modified>
        <unit meter="0.0254" name="inch" />
        <up_axis>Z_UP</up_axis>
    </asset>
    <library_cameras>
        <camera id="ID1" name="skp_camera_Last_Saved_SketchUp_View">
            <optics>
                <technique_common>
                    <perspective>
                        <yfov>35</yfov>
                        <aspect_ratio>0</aspect_ratio>
                        <znear>1</znear>
                        <zfar>1000</zfar>
                    </perspective>
                </technique_common>
            </optics>
        </camera>
    </library_cameras>
    <library_visual_scenes>
        <visual_scene id="ID2">
            <node name="SketchUp">
                <node name="skp_camera_Last_Saved_SketchUp_View">
                    <matrix>0.689028 -0.1536468 0.7082607 547.7278 0.7247348 0.1460768 -0.6733655 -296.7639 1.387779e-17 0.9772688 0.2120042 149.2746 0 0 0 1</matrix>
                    <instance_camera url="#ID1" />
                </node>
                <node id="ID3" name="group_0">
                    <matrix>1 0 0 39.37008 0 1 0 39.37008 0 0 1 -3.819167e-14 0 0 0 1</matrix>
                    <instance_geometry url="#ID38">
                        <bind_material>
                            <technique_common>
                                <instance_material symbol="Material2" target="#ID39">
                                    <bind_vertex_input semantic="UVSET0" input_semantic="TEXCOORD" input_set="0" />
                                </instance_material>
                            </technique_common>
                        </bind_material>
                    </instance_geometry>
                    <node id="ID4" name="instance_0">
                        <matrix>1 0 0 39.37008 0 1 0 0 0 0 1 3.819167e-14 0 0 0 1</matrix>
                        <instance_node url="#ID5" />
                    </node>
                    <node id="ID22" name="instance_1">
                        <matrix>1 0 0 0 0 1 0 0 0 0 1 0 0 0 0 1</matrix>
                        <instance_node url="#ID23" />
                    </node>
                </node>
                <node id="ID44" name="group_1">
                    <matrix>1.490129e-08 1 0 157.4803 -1 1.490129e-08 0 118.1102 0 -0 1 0 0 0 0 1</matrix>
                    <instance_geometry url="#ID65">
                        <bind_material>
                            <technique_common>
                                <instance_material symbol="Material2" target="#ID39">
                                    <bind_vertex_input semantic="UVSET0" input_semantic="TEXCOORD" input_set="0" />
                                </instance_material>
                            </technique_common>
                        </bind_material>
                    </instance_geometry>
                    <node id="ID45" name="instance_2">
                        <matrix>1 0 0 0 0 1 0 0 0 0 1 0 0 0 0 1</matrix>
                        <instance_node url="#ID46" />
                    </node>
                </node>
                <node id="ID69" name="instance_5">
                    <matrix>1 0 0 0 0 1 0 0 0 0 1 0 0 0 0 1</matrix>
                    <instance_node url="#ID70" />
                </node>
                <node id="ID81" name="instance_6">
                    <matrix>1 0 0 157.4803 0 1 0 39.37008 0 0 1 39.37008 0 0 0 1</matrix>
                    <instance_node url="#ID82" />
                </node>
                <node id="ID96" name="instance_7">
                    <matrix>1 0 0 118.1102 0 1 0 39.37008 0 0 1 0 0 0 0 1</matrix>
                    <instance_node url="#ID97" />
                </node>
                <node id="ID106" name="instance_8">
                    <matrix>1 0 0 -2.842171e-14 0 1 0 -1.421085e-14 0 0 1 -39.37008 0 0 0 1</matrix>
                    <instance_node url="#ID107" />
                </node>
                <node id="ID114" name="instance_9">
                    <matrix>1 0 0 39.37008 0 1 0 -1.421085e-14 0 0 1 -39.37008 0 0 0 1</matrix>
                    <instance_node url="#ID107" />
                </node>
                <node id="ID115" name="instance_10">
                    <matrix>1 0 0 78.74016 0 1 0 -1.421085e-14 0 0 1 -39.37008 0 0 0 1</matrix>
                    <instance_node url="#ID107" />
                </node>
                <node id="ID116" name="instance_11">
                    <matrix>1 0 0 118.1102 0 1 0 -1.421085e-14 0 0 1 -39.37008 0 0 0 1</matrix>
                    <instance_node url="#ID107" />
                </node>
                <node id="ID117" name="instance_12">
                    <matrix>1 0 0 157.4803 0 1 0 -1.421085e-14 0 0 1 -39.37008 0 0 0 1</matrix>
                    <instance_node url="#ID107" />
                </node>
                <node id="ID118" name="instance_13">
                    <matrix>1 0 0 157.4803 0 1 0 39.37008 0 0 1 -39.37008 0 0 0 1</matrix>
                    <instance_node url="#ID107" />
                </node>
                <node id="ID119" name="instance_14">
                    <matrix>1 0 0 118.1102 0 1 0 39.37008 0 0 1 -39.37008 0 0 0 1</matrix>
                    <instance_node url="#ID107" />
                </node>
                <node id="ID120" name="instance_15">
                    <matrix>1 0 0 39.37008 0 1 0 39.37008 0 0 1 -39.37008 0 0 0 1</matrix>
                    <instance_node url="#ID107" />
                </node>
                <node id="ID121" name="instance_16">
                    <matrix>1 0 0 78.74016 0 1 0 39.37008 0 0 1 -39.37008 0 0 0 1</matrix>
                    <instance_node url="#ID107" />
                </node>
                <node id="ID122" name="instance_17">
                    <matrix>1 0 0 -2.842171e-14 0 1 0 39.37008 0 0 1 -39.37008 0 0 0 1</matrix>
                    <instance_node url="#ID107" />
                </node>
                <node id="ID123" name="instance_18">
                    <matrix>1 0 0 157.4803 0 1 0 78.74016 0 0 1 -39.37008 0 0 0 1</matrix>
                    <instance_node url="#ID107" />
                </node>
                <node id="ID124" name="instance_19">
                    <matrix>1 0 0 118.1102 0 1 0 78.74016 0 0 1 -39.37008 0 0 0 1</matrix>
                    <instance_node url="#ID107" />
                </node>
                <node id="ID125" name="instance_20">
                    <matrix>1 0 0 39.37008 0 1 0 78.74016 0 0 1 -39.37008 0 0 0 1</matrix>
                    <instance_node url="#ID107" />
                </node>
                <node id="ID126" name="instance_21">
                    <matrix>1 0 0 78.74016 0 1 0 78.74016 0 0 1 -39.37008 0 0 0 1</matrix>
                    <instance_node url="#ID107" />
                </node>
                <node id="ID127" name="instance_22">
                    <matrix>1 0 0 39.37008 0 1 0 118.1102 0 0 1 -39.37008 0 0 0 1</matrix>
                    <instance_node url="#ID107" />
                </node>
                <node id="ID128" name="instance_23">
                    <matrix>1 0 0 -2.842171e-14 0 1 0 118.1102 0 0 1 -39.37008 0 0 0 1</matrix>
                    <instance_node url="#ID107" />
                </node>
                <node id="ID129" name="instance_24">
                    <matrix>1 0 0 78.74016 0 1 0 118.1102 0 0 1 -39.37008 0 0 0 1</matrix>
                    <instance_node url="#ID107" />
                </node>
                <node id="ID130" name="instance_25">
                    <matrix>1 0 0 118.1102 0 1 0 118.1102 0 0 1 -39.37008 0 0 0 1</matrix>
                    <instance_node url="#ID107" />
                </node>
                <node id="ID131" name="instance_26">
                    <matrix>1 0 0 157.4803 0 1 0 118.1102 0 0 1 -39.37008 0 0 0 1</matrix>
                    <instance_node url="#ID107" />
                </node>
                <node id="ID132" name="instance_27">
                    <matrix>1 0 0 -2.842171e-14 0 1 0 78.74016 0 0 1 -39.37008 0 0 0 1</matrix>
                    <instance_node url="#ID107" />
                </node>
                <node id="ID133" name="instance_28">
                    <matrix>1 0 0 -2.842171e-14 0 1 0 39.37008 0 0 1 7.105427e-15 0 0 0 1</matrix>
                    <instance_node url="#ID70" />
                </node>
                <node id="ID134" name="instance_29">
                    <matrix>1 0 0 -2.842171e-14 0 1 0 78.74016 0 0 1 9.769963e-15 0 0 0 1</matrix>
                    <instance_node url="#ID70" />
                </node>
                <node id="ID135" name="instance_30">
                    <matrix>1 0 0 -2.842171e-14 0 1 0 118.1102 0 0 1 1.24345e-14 0 0 0 1</matrix>
                    <instance_node url="#ID70" />
                </node>
                <node id="ID136" name="instance_31">
                    <matrix>1 0 0 39.37008 0 1 0 -1.421085e-14 0 0 1 7.105427e-15 0 0 0 1</matrix>
                    <instance_node url="#ID70" />
                </node>
                <node id="ID137" name="instance_32">
                    <matrix>1 0 0 78.74016 0 1 0 -1.421085e-14 0 0 1 9.769963e-15 0 0 0 1</matrix>
                    <instance_node url="#ID70" />
                </node>
                <node id="ID138" name="instance_33">
                    <matrix>1 0 0 118.1102 0 1 0 -1.421085e-14 0 0 1 1.24345e-14 0 0 0 1</matrix>
                    <instance_node url="#ID70" />
                </node>
                <node id="ID139" name="instance_34">
                    <matrix>1 0 0 157.4803 0 1 0 -1.421085e-14 0 0 1 1.509903e-14 0 0 0 1</matrix>
                    <instance_node url="#ID70" />
                </node>
                <node id="ID140" name="instance_35">
                    <matrix>1 0 0 157.4803 0 1 0 39.37008 0 0 1 1.509903e-14 0 0 0 1</matrix>
                    <instance_node url="#ID70" />
                </node>
                <node id="ID141" name="instance_36">
                    <matrix>1 0 0 39.37008 0 1 0 118.1102 0 0 1 -8.881784e-16 0 0 0 1</matrix>
                    <instance_node url="#ID70" />
                </node>
                <node id="ID142" name="instance_37">
                    <matrix>1 0 0 78.74016 0 1 0 118.1102 0 0 1 1.776357e-15 0 0 0 1</matrix>
                    <instance_node url="#ID70" />
                </node>
                <node id="ID143" name="instance_38">
                    <matrix>1 0 0 157.4803 0 1 0 118.1102 0 0 1 7.105427e-15 0 0 0 1</matrix>
                    <instance_node url="#ID70" />
                </node>
                <node id="ID144" name="instance_39">
                    <matrix>1 0 0 118.1102 0 1 0 118.1102 0 0 1 4.440892e-15 0 0 0 1</matrix>
                    <instance_node url="#ID70" />
                </node>
                <node id="ID145" name="instance_40">
                    <matrix>1 0 0 0 0 1 0 0 0 0 1 39.37008 0 0 0 1</matrix>
                    <instance_node url="#ID70" />
                </node>
                <node id="ID146" name="instance_41">
                    <matrix>1 0 0 39.37008 0 1 0 -1.421085e-14 0 0 1 39.37008 0 0 0 1</matrix>
                    <instance_node url="#ID70" />
                </node>
                <node id="ID147" name="instance_42">
                    <matrix>1 0 0 -2.842171e-14 0 1 0 78.74016 0 0 1 39.37008 0 0 0 1</matrix>
                    <instance_node url="#ID70" />
                </node>
                <node id="ID148" name="instance_43">
                    <matrix>1 0 0 -2.842171e-14 0 1 0 39.37008 0 0 1 39.37008 0 0 0 1</matrix>
                    <instance_node url="#ID70" />
                </node>
                <node id="ID149" name="instance_44">
                    <matrix>1 0 0 -2.842171e-14 0 1 0 118.1102 0 0 1 39.37008 0 0 0 1</matrix>
                    <instance_node url="#ID70" />
                </node>
                <node id="ID150" name="instance_45">
                    <matrix>1 0 0 78.74016 0 1 0 -1.421085e-14 0 0 1 39.37008 0 0 0 1</matrix>
                    <instance_node url="#ID70" />
                </node>
                <node id="ID151" name="instance_46">
                    <matrix>1 0 0 157.4803 0 1 0 -1.421085e-14 0 0 1 39.37008 0 0 0 1</matrix>
                    <instance_node url="#ID70" />
                </node>
                <node id="ID152" name="instance_47">
                    <matrix>1 0 0 118.1102 0 1 0 -1.421085e-14 0 0 1 39.37008 0 0 0 1</matrix>
                    <instance_node url="#ID70" />
                </node>
                <node id="ID153" name="instance_48">
                    <matrix>1 0 0 78.74016 0 1 0 118.1102 0 0 1 39.37008 0 0 0 1</matrix>
                    <instance_node url="#ID70" />
                </node>
                <node id="ID154" name="instance_49">
                    <matrix>1 0 0 157.4803 0 1 0 118.1102 0 0 1 39.37008 0 0 0 1</matrix>
                    <instance_node url="#ID70" />
                </node>
                <node id="ID155" name="instance_50">
                    <matrix>1 0 0 39.37008 0 1 0 118.1102 0 0 1 39.37008 0 0 0 1</matrix>
                    <instance_node url="#ID70" />
                </node>
                <node id="ID156" name="instance_51">
                    <matrix>1 0 0 118.1102 0 1 0 118.1102 0 0 1 39.37008 0 0 0 1</matrix>
                    <instance_node url="#ID70" />
                </node>
                <node id="ID157" name="instance_52">
                    <matrix>1 0 0 39.37008 0 1 0 118.1102 0 0 1 78.74016 0 0 0 1</matrix>
                    <instance_node url="#ID70" />
                </node>
                <node id="ID158" name="instance_53">
                    <matrix>1 0 0 78.74016 0 1 0 118.1102 0 0 1 78.74016 0 0 0 1</matrix>
                    <instance_node url="#ID70" />
                </node>
                <node id="ID159" name="instance_54">
                    <matrix>1 0 0 118.1102 0 1 0 -1.421085e-14 0 0 1 78.74016 0 0 0 1</matrix>
                    <instance_node url="#ID70" />
                </node>
                <node id="ID160" name="instance_55">
                    <matrix>1 0 0 118.1102 0 1 0 118.1102 0 0 1 78.74016 0 0 0 1</matrix>
                    <instance_node url="#ID70" />
                </node>
                <node id="ID161" name="instance_56">
                    <matrix>1 0 0 157.4803 0 1 0 118.1102 0 0 1 78.74016 0 0 0 1</matrix>
                    <instance_node url="#ID70" />
                </node>
                <node id="ID162" name="instance_57">
                    <matrix>1 0 0 78.74016 0 1 0 -1.421085e-14 0 0 1 78.74016 0 0 0 1</matrix>
                    <instance_node url="#ID70" />
                </node>
                <node id="ID163" name="instance_58">
                    <matrix>1 0 0 157.4803 0 1 0 -1.421085e-14 0 0 1 78.74016 0 0 0 1</matrix>
                    <instance_node url="#ID70" />
                </node>
                <node id="ID164" name="instance_59">
                    <matrix>1 0 0 -2.842171e-14 0 1 0 78.74016 0 0 1 78.74016 0 0 0 1</matrix>
                    <instance_node url="#ID70" />
                </node>
                <node id="ID165" name="instance_60">
                    <matrix>1 0 0 -2.842171e-14 0 1 0 39.37008 0 0 1 78.74016 0 0 0 1</matrix>
                    <instance_node url="#ID70" />
                </node>
                <node id="ID166" name="instance_61">
                    <matrix>1 0 0 39.37008 0 1 0 -1.421085e-14 0 0 1 78.74016 0 0 0 1</matrix>
                    <instance_node url="#ID70" />
                </node>
                <node id="ID167" name="instance_62">
                    <matrix>1 0 0 -2.842171e-14 0 1 0 118.1102 0 0 1 78.74016 0 0 0 1</matrix>
                    <instance_node url="#ID70" />
                </node>
                <node id="ID168" name="instance_63">
                    <matrix>1 0 0 0 0 1 0 0 0 0 1 78.74016 0 0 0 1</matrix>
                    <instance_node url="#ID70" />
                </node>
                <node id="ID169" name="instance_64">
                    <matrix>1 0 0 157.4803 0 1 0 78.74016 0 0 1 78.74016 0 0 0 1</matrix>
                    <instance_node url="#ID70" />
                </node>
                <node id="ID170" name="instance_65">
                    <matrix>1 0 0 157.4803 0 1 0 39.37008 0 0 1 78.74016 0 0 0 1</matrix>
                    <instance_node url="#ID70" />
                </node>
                <node id="ID171" name="instance_66">
                    <matrix>1 0 0 157.4803 0 1 0 39.37008 0 0 1 118.1102 0 0 0 1</matrix>
                    <instance_node url="#ID70" />
                </node>
                <node id="ID172" name="instance_67">
                    <matrix>1 0 0 78.74016 0 1 0 39.37008 0 0 1 118.1102 0 0 0 1</matrix>
                    <instance_node url="#ID70" />
                </node>
                <node id="ID173" name="instance_68">
                    <matrix>1 0 0 -2.842171e-14 0 1 0 78.74016 0 0 1 118.1102 0 0 0 1</matrix>
                    <instance_node url="#ID70" />
                </node>
                <node id="ID174" name="instance_69">
                    <matrix>1 0 0 39.37008 0 1 0 39.37008 0 0 1 118.1102 0 0 0 1</matrix>
                    <instance_node url="#ID70" />
                </node>
                <node id="ID175" name="instance_70">
                    <matrix>1 0 0 -2.842171e-14 0 1 0 39.37008 0 0 1 118.1102 0 0 0 1</matrix>
                    <instance_node url="#ID70" />
                </node>
                <node id="ID176" name="instance_71">
                    <matrix>1 0 0 78.74016 0 1 0 78.74016 0 0 1 118.1102 0 0 0 1</matrix>
                    <instance_node url="#ID70" />
                </node>
                <node id="ID177" name="instance_72">
                    <matrix>1 0 0 39.37008 0 1 0 78.74016 0 0 1 118.1102 0 0 0 1</matrix>
                    <instance_node url="#ID70" />
                </node>
                <node id="ID178" name="instance_73">
                    <matrix>1 0 0 118.1102 0 1 0 39.37008 0 0 1 118.1102 0 0 0 1</matrix>
                    <instance_node url="#ID70" />
                </node>
                <node id="ID179" name="instance_74">
                    <matrix>1 0 0 118.1102 0 1 0 78.74016 0 0 1 118.1102 0 0 0 1</matrix>
                    <instance_node url="#ID70" />
                </node>
                <node id="ID180" name="instance_75">
                    <matrix>1 0 0 157.4803 0 1 0 78.74016 0 0 1 118.1102 0 0 0 1</matrix>
                    <instance_node url="#ID70" />
                </node>
                <node id="ID181" name="instance_76">
                    <matrix>1 0 0 236.2205 0 1 0 -1.421085e-14 0 0 1 -39.37008 0 0 0 1</matrix>
                    <instance_node url="#ID182" />
                </node>
                <node id="ID189" name="instance_77">
                    <matrix>1 0 0 196.8504 0 1 0 -1.421085e-14 0 0 1 -39.37008 0 0 0 1</matrix>
                    <instance_node url="#ID182" />
                </node>
                <node id="ID190" name="instance_78">
                    <matrix>1 0 0 236.2205 0 1 0 78.74016 0 0 1 -39.37008 0 0 0 1</matrix>
                    <instance_node url="#ID182" />
                </node>
                <node id="ID191" name="instance_79">
                    <matrix>1 0 0 196.8504 0 1 0 118.1102 0 0 1 -39.37008 0 0 0 1</matrix>
                    <instance_node url="#ID182" />
                </node>
                <node id="ID192" name="instance_80">
                    <matrix>1 0 0 196.8504 0 1 0 78.74016 0 0 1 -39.37008 0 0 0 1</matrix>
                    <instance_node url="#ID182" />
                </node>
                <node id="ID193" name="instance_81">
                    <matrix>1 0 0 196.8504 0 1 0 39.37008 0 0 1 -39.37008 0 0 0 1</matrix>
                    <instance_node url="#ID182" />
                </node>
                <node id="ID194" name="instance_82">
                    <matrix>1 0 0 236.2205 0 1 0 39.37008 0 0 1 -39.37008 0 0 0 1</matrix>
                    <instance_node url="#ID182" />
                </node>
                <node id="ID195" name="instance_83">
                    <matrix>1 0 0 236.2205 0 1 0 118.1102 0 0 1 -39.37008 0 0 0 1</matrix>
                    <instance_node url="#ID182" />
                </node>
            </node>
        </visual_scene>
    </library_visual_scenes>
    <library_nodes>
        <node id="ID5" name="cama_pie">
            <instance_geometry url="#ID6">
                <bind_material>
                    <technique_common>
                        <instance_material symbol="Material2" target="#ID7">
                            <bind_vertex_input semantic="UVSET0" input_semantic="TEXCOORD" input_set="0" />
                        </instance_material>
                        <instance_material symbol="Material3" target="#ID12">
                            <bind_vertex_input semantic="UVSET0" input_semantic="TEXCOORD" input_set="0" />
                        </instance_material>
                    </technique_common>
                </bind_material>
            </instance_geometry>
            <instance_geometry url="#ID16">
                <bind_material>
                    <technique_common>
                        <instance_material symbol="Material2" target="#ID12">
                            <bind_vertex_input semantic="UVSET0" input_semantic="TEXCOORD" input_set="0" />
                        </instance_material>
                    </technique_common>
                </bind_material>
            </instance_geometry>
        </node>
        <node id="ID23" name="cama_cabecera">
            <instance_geometry url="#ID24">
                <bind_material>
                    <technique_common>
                        <instance_material symbol="Material2" target="#ID7">
                            <bind_vertex_input semantic="UVSET0" input_semantic="TEXCOORD" input_set="0" />
                        </instance_material>
                        <instance_material symbol="Material3" target="#ID28">
                            <bind_vertex_input semantic="UVSET0" input_semantic="TEXCOORD" input_set="0" />
                        </instance_material>
                    </technique_common>
                </bind_material>
            </instance_geometry>
            <instance_geometry url="#ID32">
                <bind_material>
                    <technique_common>
                        <instance_material symbol="Material2" target="#ID28">
                            <bind_vertex_input semantic="UVSET0" input_semantic="TEXCOORD" input_set="0" />
                        </instance_material>
                    </technique_common>
                </bind_material>
            </instance_geometry>
        </node>
        <node id="ID46" name="puerta">
            <node id="ID47" name="instance_3">
                <matrix>1 0 0 0 0 1 0 0 0 0 1 0 0 0 0 1</matrix>
                <instance_node url="#ID48" />
            </node>
            <node id="ID55" name="instance_4">
                <matrix>1 0 0 0 0 1 0 0 0 0 1 39.37008 0 0 0 1</matrix>
                <instance_node url="#ID56" />
            </node>
        </node>
        <node id="ID48" name="puerta_inf_1">
            <instance_geometry url="#ID49">
                <bind_material>
                    <technique_common>
                        <instance_material symbol="Material2" target="#ID7">
                            <bind_vertex_input semantic="UVSET0" input_semantic="TEXCOORD" input_set="0" />
                        </instance_material>
                    </technique_common>
                </bind_material>
            </instance_geometry>
        </node>
        <node id="ID56" name="puerta_sup_1">
            <instance_geometry url="#ID57">
                <bind_material>
                    <technique_common>
                        <instance_material symbol="Material2" target="#ID58">
                            <bind_vertex_input semantic="UVSET0" input_semantic="TEXCOORD" input_set="0" />
                        </instance_material>
                    </technique_common>
                </bind_material>
            </instance_geometry>
        </node>
        <node id="ID70" name="pared">
            <instance_geometry url="#ID71">
                <bind_material>
                    <technique_common>
                        <instance_material symbol="Material2" target="#ID72">
                            <bind_vertex_input semantic="UVSET0" input_semantic="TEXCOORD" input_set="0" />
                        </instance_material>
                        <instance_material symbol="Material3" target="#ID77">
                            <bind_vertex_input semantic="UVSET0" input_semantic="TEXCOORD" input_set="0" />
                        </instance_material>
                    </technique_common>
                </bind_material>
            </instance_geometry>
        </node>
        <node id="ID82" name="ventana">
            <instance_geometry url="#ID83">
                <bind_material>
                    <technique_common>
                        <instance_material symbol="Material2" target="#ID84">
                            <bind_vertex_input semantic="UVSET0" input_semantic="TEXCOORD" input_set="0" />
                        </instance_material>
                    </technique_common>
                </bind_material>
            </instance_geometry>
        </node>
        <node id="ID97" name="baul">
            <instance_geometry url="#ID98">
                <bind_material>
                    <technique_common>
                        <instance_material symbol="Material2" target="#ID99">
                            <bind_vertex_input semantic="UVSET0" input_semantic="TEXCOORD" input_set="0" />
                        </instance_material>
                    </technique_common>
                </bind_material>
            </instance_geometry>
        </node>
        <node id="ID107" name="pared">
            <instance_geometry url="#ID108">
                <bind_material>
                    <technique_common>
                        <instance_material symbol="Material2" target="#ID7">
                            <bind_vertex_input semantic="UVSET0" input_semantic="TEXCOORD" input_set="0" />
                        </instance_material>
                        <instance_material symbol="Material3" target="#ID72">
                            <bind_vertex_input semantic="UVSET0" input_semantic="TEXCOORD" input_set="0" />
                        </instance_material>
                    </technique_common>
                </bind_material>
            </instance_geometry>
        </node>
        <node id="ID182" name="tierra">
            <instance_geometry url="#ID183">
                <bind_material>
                    <technique_common>
                        <instance_material symbol="Material2" target="#ID7">
                            <bind_vertex_input semantic="UVSET0" input_semantic="TEXCOORD" input_set="0" />
                        </instance_material>
                    </technique_common>
                </bind_material>
            </instance_geometry>
        </node>
    </library_nodes>
    <library_geometries>
        <geometry id="ID6">
            <mesh>
                <source id="ID9">
                    <float_array id="ID14" count="204">35.43307 39.37008 7.874016 0 0 7.874016 0 39.37008 7.874016 35.43307 0 7.874016 35.43307 0 7.874016 35.43307 39.37008 7.874016 0 0 7.874016 0 39.37008 7.874016 39.37008 0 15.74803 35.43307 0 0 39.37008 0 0 35.43307 0 7.874016 0 0 7.874016 0 0 15.74803 0 0 15.74803 39.37008 0 15.74803 0 0 7.874016 35.43307 0 7.874016 35.43307 0 0 39.37008 0 0 0 39.37008 27.55906 0 0 15.74803 0 0 27.55906 0 0 7.874016 0 39.37008 7.874016 0 39.37008 15.74803 0 39.37008 15.74803 0 39.37008 27.55906 0 39.37008 7.874016 0 0 7.874016 0 0 15.74803 0 0 27.55906 0 39.37008 15.74803 35.43307 39.37008 7.874016 0 39.37008 7.874016 39.37008 39.37008 0 35.43307 39.37008 0 39.37008 39.37008 15.74803 0 39.37008 15.74803 35.43307 39.37008 7.874016 39.37008 39.37008 15.74803 39.37008 39.37008 0 35.43307 39.37008 0 0 39.37008 7.874016 35.43307 39.37008 7.874016 35.43307 0 0 35.43307 0 7.874016 35.43307 39.37008 0 35.43307 39.37008 0 35.43307 39.37008 7.874016 35.43307 0 0 35.43307 0 7.874016 39.37008 39.37008 0 35.43307 0 0 35.43307 39.37008 0 39.37008 0 0 39.37008 0 0 39.37008 39.37008 0 35.43307 0 0 35.43307 39.37008 0 39.37008 39.37008 0 39.37008 0 15.74803 39.37008 0 0 39.37008 39.37008 15.74803 39.37008 39.37008 15.74803 39.37008 39.37008 0 39.37008 0 15.74803 39.37008 0 0</float_array>
                    <technique_common>
                        <accessor count="68" source="#ID14" stride="3">
                            <param name="X" type="float" />
                            <param name="Y" type="float" />
                            <param name="Z" type="float" />
                        </accessor>
                    </technique_common>
                </source>
                <source id="ID10">
                    <float_array id="ID15" count="204">0 0 -1 0 0 -1 0 0 -1 0 0 -1 -0 -0 1 -0 -0 1 -0 -0 1 -0 -0 1 0 -1 0 0 -1 0 0 -1 0 0 -1 0 0 -1 0 0 -1 0 -0 1 -0 -0 1 -0 -0 1 -0 -0 1 -0 -0 1 -0 -0 1 -0 -1 0 0 -1 0 0 -1 0 0 -1 0 0 -1 0 0 -1 0 0 1 -0 -0 1 -0 -0 1 -0 -0 1 -0 -0 1 -0 -0 1 -0 -0 0 1 0 0 1 0 0 1 0 0 1 0 0 1 0 0 1 0 -0 -1 -0 -0 -1 -0 -0 -1 -0 -0 -1 -0 -0 -1 -0 -0 -1 -0 -1 0 0 -1 0 0 -1 0 0 -1 0 0 1 -0 -0 1 -0 -0 1 -0 -0 1 -0 -0 0 0 -1 0 0 -1 0 0 -1 0 0 -1 -0 -0 1 -0 -0 1 -0 -0 1 -0 -0 1 1 0 0 1 0 0 1 0 0 1 0 0 -1 -0 -0 -1 -0 -0 -1 -0 -0 -1 -0 -0</float_array>
                    <technique_common>
                        <accessor count="68" source="#ID15" stride="3">
                            <param name="X" type="float" />
                            <param name="Y" type="float" />
                            <param name="Z" type="float" />
                        </accessor>
                    </technique_common>
                </source>
                <vertices id="ID11">
                    <input semantic="POSITION" source="#ID9" />
                    <input semantic="NORMAL" source="#ID10" />
                </vertices>
                <triangles count="20" material="Material2">
                    <input offset="0" semantic="VERTEX" source="#ID11" />
                    <p>0 1 2 1 0 3 8 9 10 9 8 11 11 8 12 12 8 13 20 21 22 21 20 23 23 20 24 24 20 25 32 33 34 33 35 36 35 33 37 37 33 32 44 45 46 45 44 47 52 53 54 53 52 55 60 61 62 61 60 63</p>
                </triangles>
                <triangles count="20" material="Material3">
                    <input offset="0" semantic="VERTEX" source="#ID11" />
                    <p>4 5 6 7 6 5 14 15 16 16 15 17 17 15 18 19 18 15 26 27 28 28 27 29 29 27 30 31 30 27 38 39 40 40 39 41 42 41 39 43 39 38 48 49 50 51 50 49 56 57 58 59 58 57 64 65 66 67 66 65</p>
                </triangles>
            </mesh>
        </geometry>
        <geometry id="ID16">
            <mesh>
                <source id="ID17">
                    <float_array id="ID20" count="96">39.37008 39.37008 15.74803 39.37008 0 27.55906 39.37008 0 15.74803 39.37008 39.37008 27.55906 39.37008 39.37008 27.55906 39.37008 39.37008 15.74803 39.37008 0 27.55906 39.37008 0 15.74803 39.37008 0 27.55906 0 0 15.74803 39.37008 0 15.74803 0 0 27.55906 0 0 27.55906 39.37008 0 27.55906 0 0 15.74803 39.37008 0 15.74803 0 39.37008 27.55906 39.37008 39.37008 15.74803 0 39.37008 15.74803 39.37008 39.37008 27.55906 39.37008 39.37008 27.55906 0 39.37008 27.55906 39.37008 39.37008 15.74803 0 39.37008 15.74803 39.37008 0 27.55906 0 39.37008 27.55906 0 0 27.55906 39.37008 39.37008 27.55906 39.37008 39.37008 27.55906 39.37008 0 27.55906 0 39.37008 27.55906 0 0 27.55906</float_array>
                    <technique_common>
                        <accessor count="32" source="#ID20" stride="3">
                            <param name="X" type="float" />
                            <param name="Y" type="float" />
                            <param name="Z" type="float" />
                        </accessor>
                    </technique_common>
                </source>
                <source id="ID18">
                    <float_array id="ID21" count="96">1 0 0 1 0 0 1 0 0 1 0 0 -1 -0 -0 -1 -0 -0 -1 -0 -0 -1 -0 -0 0 -1 0 0 -1 0 0 -1 0 0 -1 0 -0 1 -0 -0 1 -0 -0 1 -0 -0 1 -0 0 1 0 0 1 0 0 1 0 0 1 0 -0 -1 -0 -0 -1 -0 -0 -1 -0 -0 -1 -0 0 0 1 0 0 1 0 0 1 0 0 1 -0 -0 -1 -0 -0 -1 -0 -0 -1 -0 -0 -1</float_array>
                    <technique_common>
                        <accessor count="32" source="#ID21" stride="3">
                            <param name="X" type="float" />
                            <param name="Y" type="float" />
                            <param name="Z" type="float" />
                        </accessor>
                    </technique_common>
                </source>
                <vertices id="ID19">
                    <input semantic="POSITION" source="#ID17" />
                    <input semantic="NORMAL" source="#ID18" />
                </vertices>
                <triangles count="16" material="Material2">
                    <input offset="0" semantic="VERTEX" source="#ID19" />
                    <p>0 1 2 1 0 3 4 5 6 7 6 5 8 9 10 9 8 11 12 13 14 15 14 13 16 17 18 17 16 19 20 21 22 23 22 21 24 25 26 25 24 27 28 29 30 31 30 29</p>
                </triangles>
            </mesh>
        </geometry>
        <geometry id="ID24">
            <mesh>
                <source id="ID25">
                    <float_array id="ID30" count="228">0 39.37008 39.37008 3.937008 39.37008 0 0 39.37008 0 3.937008 39.37008 7.874016 3.937008 39.37008 15.74803 39.37008 39.37008 7.874016 3.937008 39.37008 27.55906 3.937008 39.37008 39.37008 39.37008 39.37008 15.74803 3.937008 39.37008 15.74803 39.37008 39.37008 7.874016 39.37008 39.37008 15.74803 3.937008 39.37008 39.37008 0 39.37008 39.37008 3.937008 39.37008 27.55906 3.937008 39.37008 7.874016 3.937008 39.37008 0 0 39.37008 0 3.937008 39.37008 27.55906 3.937008 0 39.37008 3.937008 0 27.55906 3.937008 39.37008 39.37008 3.937008 39.37008 39.37008 3.937008 39.37008 27.55906 3.937008 0 39.37008 3.937008 0 27.55906 3.937008 39.37008 0 3.937008 0 7.874016 3.937008 0 0 3.937008 39.37008 7.874016 3.937008 39.37008 7.874016 3.937008 39.37008 0 3.937008 0 7.874016 3.937008 0 0 3.937008 39.37008 0 0 0 0 0 39.37008 0 3.937008 0 0 3.937008 0 0 3.937008 39.37008 0 0 0 0 0 39.37008 0 0 39.37008 39.37008 0 0 0 0 0 39.37008 0 39.37008 0 0 39.37008 0 0 39.37008 39.37008 0 0 0 0 0 39.37008 3.937008 0 39.37008 0 39.37008 39.37008 0 0 39.37008 3.937008 39.37008 39.37008 3.937008 39.37008 39.37008 3.937008 0 39.37008 0 39.37008 39.37008 0 0 39.37008 39.37008 0 15.74803 3.937008 0 7.874016 39.37008 0 7.874016 0 0 0 3.937008 0 0 0 0 39.37008 3.937008 0 15.74803 3.937008 0 27.55906 3.937008 0 39.37008 3.937008 0 39.37008 3.937008 0 27.55906 0 0 39.37008 3.937008 0 15.74803 39.37008 0 15.74803 3.937008 0 7.874016 0 0 0 3.937008 0 0 39.37008 0 7.874016</float_array>
                    <technique_common>
                        <accessor count="76" source="#ID30" stride="3">
                            <param name="X" type="float" />
                            <param name="Y" type="float" />
                            <param name="Z" type="float" />
                        </accessor>
                    </technique_common>
                </source>
                <source id="ID26">
                    <float_array id="ID31" count="228">0 1 0 0 1 0 0 1 0 0 1 0 0 1 0 0 1 0 0 1 0 0 1 0 0 1 0 -0 -1 -0 -0 -1 -0 -0 -1 -0 -0 -1 -0 -0 -1 -0 -0 -1 -0 -0 -1 -0 -0 -1 -0 -0 -1 -0 1 0 0 1 0 0 1 0 0 1 0 0 -1 -0 -0 -1 -0 -0 -1 -0 -0 -1 -0 -0 1 0 0 1 0 0 1 0 0 1 0 0 -1 -0 -0 -1 -0 -0 -1 -0 -0 -1 -0 -0 0 0 -1 0 0 -1 0 0 -1 0 0 -1 -0 -0 1 -0 -0 1 -0 -0 1 -0 -0 1 -1 0 0 -1 0 0 -1 0 0 -1 0 0 1 -0 -0 1 -0 -0 1 -0 -0 1 -0 -0 0 0 1 0 0 1 0 0 1 0 0 1 -0 -0 -1 -0 -0 -1 -0 -0 -1 -0 -0 -1 0 -1 0 0 -1 0 0 -1 0 0 -1 0 0 -1 0 0 -1 0 0 -1 0 0 -1 0 0 -1 0 -0 1 -0 -0 1 -0 -0 1 -0 -0 1 -0 -0 1 -0 -0 1 -0 -0 1 -0 -0 1 -0 -0 1 -0</float_array>
                    <technique_common>
                        <accessor count="76" source="#ID31" stride="3">
                            <param name="X" type="float" />
                            <param name="Y" type="float" />
                            <param name="Z" type="float" />
                        </accessor>
                    </technique_common>
                </source>
                <vertices id="ID27">
                    <input semantic="POSITION" source="#ID25" />
                    <input semantic="NORMAL" source="#ID26" />
                </vertices>
                <triangles count="24" material="Material2">
                    <input offset="0" semantic="VERTEX" source="#ID27" />
                    <p>0 1 2 1 0 3 3 0 4 3 4 5 4 0 6 6 0 7 8 5 4 18 19 20 19 18 21 26 27 28 27 26 29 34 35 36 35 34 37 42 43 44 43 42 45 50 51 52 51 50 53 58 59 60 59 61 62 61 59 63 63 59 64 64 59 58 63 64 65 63 65 66</p>
                </triangles>
                <triangles count="24" material="Material3">
                    <input offset="0" semantic="VERTEX" source="#ID27" />
                    <p>9 10 11 12 13 14 14 13 9 10 9 15 9 13 15 15 13 16 17 16 13 22 23 24 25 24 23 30 31 32 33 32 31 38 39 40 41 40 39 46 47 48 49 48 47 54 55 56 57 56 55 67 68 69 68 70 69 71 72 70 70 72 69 69 72 73 74 73 72 75 72 71</p>
                </triangles>
            </mesh>
        </geometry>
        <geometry id="ID32">
            <mesh>
                <source id="ID33">
                    <float_array id="ID36" count="132">39.37008 0 27.55906 3.937008 39.37008 27.55906 3.937008 0 27.55906 39.37008 39.37008 27.55906 39.37008 39.37008 27.55906 39.37008 0 27.55906 3.937008 39.37008 27.55906 3.937008 0 27.55906 39.37008 0 27.55906 3.937008 0 15.74803 39.37008 0 15.74803 3.937008 0 27.55906 3.937008 0 27.55906 39.37008 0 27.55906 3.937008 0 15.74803 39.37008 0 15.74803 39.37008 39.37008 7.874016 39.37008 0 15.74803 39.37008 0 7.874016 39.37008 0 27.55906 39.37008 39.37008 27.55906 39.37008 39.37008 15.74803 39.37008 39.37008 15.74803 39.37008 39.37008 7.874016 39.37008 39.37008 27.55906 39.37008 0 27.55906 39.37008 0 15.74803 39.37008 0 7.874016 3.937008 39.37008 27.55906 39.37008 39.37008 15.74803 3.937008 39.37008 15.74803 39.37008 39.37008 27.55906 39.37008 39.37008 27.55906 3.937008 39.37008 27.55906 39.37008 39.37008 15.74803 3.937008 39.37008 15.74803 39.37008 39.37008 7.874016 3.937008 0 7.874016 3.937008 39.37008 7.874016 39.37008 0 7.874016 39.37008 0 7.874016 39.37008 39.37008 7.874016 3.937008 0 7.874016 3.937008 39.37008 7.874016</float_array>
                    <technique_common>
                        <accessor count="44" source="#ID36" stride="3">
                            <param name="X" type="float" />
                            <param name="Y" type="float" />
                            <param name="Z" type="float" />
                        </accessor>
                    </technique_common>
                </source>
                <source id="ID34">
                    <float_array id="ID37" count="132">0 0 1 0 0 1 0 0 1 0 0 1 -0 -0 -1 -0 -0 -1 -0 -0 -1 -0 -0 -1 0 -1 0 0 -1 0 0 -1 0 0 -1 0 -0 1 -0 -0 1 -0 -0 1 -0 -0 1 -0 1 0 0 1 0 0 1 0 0 1 0 0 1 0 0 1 0 0 -1 -0 -0 -1 -0 -0 -1 -0 -0 -1 -0 -0 -1 -0 -0 -1 -0 -0 0 1 0 0 1 0 0 1 0 0 1 0 -0 -1 -0 -0 -1 -0 -0 -1 -0 -0 -1 -0 0 0 -1 0 0 -1 0 0 -1 0 0 -1 -0 -0 1 -0 -0 1 -0 -0 1 -0 -0 1</float_array>
                    <technique_common>
                        <accessor count="44" source="#ID37" stride="3">
                            <param name="X" type="float" />
                            <param name="Y" type="float" />
                            <param name="Z" type="float" />
                        </accessor>
                    </technique_common>
                </source>
                <vertices id="ID35">
                    <input semantic="POSITION" source="#ID33" />
                    <input semantic="NORMAL" source="#ID34" />
                </vertices>
                <triangles count="24" material="Material2">
                    <input offset="0" semantic="VERTEX" source="#ID35" />
                    <p>0 1 2 1 0 3 4 5 6 7 6 5 8 9 10 9 8 11 12 13 14 15 14 13 16 17 18 17 16 19 19 16 20 20 16 21 22 23 24 24 23 25 25 23 26 27 26 23 28 29 30 29 28 31 32 33 34 35 34 33 36 37 38 37 36 39 40 41 42 43 42 41</p>
                </triangles>
            </mesh>
        </geometry>
        <geometry id="ID38">
            <mesh>
                <source id="ID41">
                    <float_array id="ID43" count="24">0 39.37008 4.263256e-14 0 0 4.263256e-14 78.74016 39.37008 0 78.74016 39.37008 39.37008 78.74016 2.842171e-14 39.37008 78.74016 0 0 0 2.842171e-14 39.37008 0 39.37008 39.37008</float_array>
                    <technique_common>
                        <accessor count="8" source="#ID43" stride="3">
                            <param name="X" type="float" />
                            <param name="Y" type="float" />
                            <param name="Z" type="float" />
                        </accessor>
                    </technique_common>
                </source>
                <vertices id="ID42">
                    <input semantic="POSITION" source="#ID41" />
                </vertices>
                <lines count="12" material="Material2">
                    <input offset="0" semantic="VERTEX" source="#ID42" />
                    <p>1 0 2 0 2 3 3 4 4 5 4 6 7 6 3 7 5 2 0 7 6 1 5 1</p>
                </lines>
            </mesh>
        </geometry>
        <geometry id="ID49">
            <mesh>
                <source id="ID50">
                    <float_array id="ID53" count="144">39.37008 3.937008 0 39.37008 0 39.37008 39.37008 0 0 39.37008 3.937008 39.37008 39.37008 3.937008 39.37008 39.37008 3.937008 0 39.37008 0 39.37008 39.37008 0 0 39.37008 3.937008 0 0 0 0 0 3.937008 0 39.37008 0 0 39.37008 0 0 39.37008 3.937008 0 0 0 0 0 3.937008 0 0 3.937008 39.37008 39.37008 3.937008 0 0 3.937008 0 39.37008 3.937008 39.37008 39.37008 3.937008 39.37008 0 3.937008 39.37008 39.37008 3.937008 0 0 3.937008 0 39.37008 0 39.37008 0 3.937008 39.37008 0 0 39.37008 39.37008 3.937008 39.37008 39.37008 3.937008 39.37008 39.37008 0 39.37008 0 3.937008 39.37008 0 0 39.37008 39.37008 0 39.37008 0 0 0 39.37008 0 0 0 0 39.37008 0 0 39.37008 39.37008 0 39.37008 0 0 0 39.37008 0 0 0 3.937008 39.37008 0 0 0 0 0 39.37008 0 3.937008 0 0 3.937008 0 0 3.937008 39.37008 0 0 0 0 0 39.37008</float_array>
                    <technique_common>
                        <accessor count="48" source="#ID53" stride="3">
                            <param name="X" type="float" />
                            <param name="Y" type="float" />
                            <param name="Z" type="float" />
                        </accessor>
                    </technique_common>
                </source>
                <source id="ID51">
                    <float_array id="ID54" count="144">1 0 0 1 0 0 1 0 0 1 0 0 -1 -0 -0 -1 -0 -0 -1 -0 -0 -1 -0 -0 0 0 -1 0 0 -1 0 0 -1 0 0 -1 -0 -0 1 -0 -0 1 -0 -0 1 -0 -0 1 0 1 0 0 1 0 0 1 0 0 1 0 -0 -1 -0 -0 -1 -0 -0 -1 -0 -0 -1 -0 0 0 1 0 0 1 0 0 1 0 0 1 -0 -0 -1 -0 -0 -1 -0 -0 -1 -0 -0 -1 0 -1 0 0 -1 0 0 -1 0 0 -1 0 -0 1 -0 -0 1 -0 -0 1 -0 -0 1 -0 -1 0 0 -1 0 0 -1 0 0 -1 0 0 1 -0 -0 1 -0 -0 1 -0 -0 1 -0 -0</float_array>
                    <technique_common>
                        <accessor count="48" source="#ID54" stride="3">
                            <param name="X" type="float" />
                            <param name="Y" type="float" />
                            <param name="Z" type="float" />
                        </accessor>
                    </technique_common>
                </source>
                <vertices id="ID52">
                    <input semantic="POSITION" source="#ID50" />
                    <input semantic="NORMAL" source="#ID51" />
                </vertices>
                <triangles count="24" material="Material2">
                    <input offset="0" semantic="VERTEX" source="#ID52" />
                    <p>0 1 2 1 0 3 4 5 6 7 6 5 8 9 10 9 8 11 12 13 14 15 14 13 16 17 18 17 16 19 20 21 22 23 22 21 24 25 26 25 24 27 28 29 30 31 30 29 32 33 34 33 32 35 36 37 38 39 38 37 40 41 42 41 40 43 44 45 46 47 46 45</p>
                </triangles>
            </mesh>
        </geometry>
        <geometry id="ID57">
            <mesh>
                <source id="ID60">
                    <float_array id="ID63" count="144">39.37008 3.937008 0 39.37008 0 39.37008 39.37008 0 0 39.37008 3.937008 39.37008 39.37008 3.937008 39.37008 39.37008 3.937008 0 39.37008 0 39.37008 39.37008 0 0 39.37008 3.937008 0 0 0 0 0 3.937008 0 39.37008 0 0 39.37008 0 0 39.37008 3.937008 0 0 0 0 0 3.937008 0 0 3.937008 39.37008 39.37008 3.937008 0 0 3.937008 0 39.37008 3.937008 39.37008 39.37008 3.937008 39.37008 0 3.937008 39.37008 39.37008 3.937008 0 0 3.937008 0 39.37008 0 39.37008 0 3.937008 39.37008 0 0 39.37008 39.37008 3.937008 39.37008 39.37008 3.937008 39.37008 39.37008 0 39.37008 0 3.937008 39.37008 0 0 39.37008 39.37008 0 39.37008 0 0 0 39.37008 0 0 0 0 39.37008 0 0 39.37008 39.37008 0 39.37008 0 0 0 39.37008 0 0 0 3.937008 39.37008 0 0 0 0 0 39.37008 0 3.937008 0 0 3.937008 0 0 3.937008 39.37008 0 0 0 0 0 39.37008</float_array>
                    <technique_common>
                        <accessor count="48" source="#ID63" stride="3">
                            <param name="X" type="float" />
                            <param name="Y" type="float" />
                            <param name="Z" type="float" />
                        </accessor>
                    </technique_common>
                </source>
                <source id="ID61">
                    <float_array id="ID64" count="144">1 0 0 1 0 0 1 0 0 1 0 0 -1 -0 -0 -1 -0 -0 -1 -0 -0 -1 -0 -0 0 0 -1 0 0 -1 0 0 -1 0 0 -1 -0 -0 1 -0 -0 1 -0 -0 1 -0 -0 1 0 1 0 0 1 0 0 1 0 0 1 0 -0 -1 -0 -0 -1 -0 -0 -1 -0 -0 -1 -0 0 0 1 0 0 1 0 0 1 0 0 1 -0 -0 -1 -0 -0 -1 -0 -0 -1 -0 -0 -1 0 -1 0 0 -1 0 0 -1 0 0 -1 0 -0 1 -0 -0 1 -0 -0 1 -0 -0 1 -0 -1 0 0 -1 0 0 -1 0 0 -1 0 0 1 -0 -0 1 -0 -0 1 -0 -0 1 -0 -0</float_array>
                    <technique_common>
                        <accessor count="48" source="#ID64" stride="3">
                            <param name="X" type="float" />
                            <param name="Y" type="float" />
                            <param name="Z" type="float" />
                        </accessor>
                    </technique_common>
                </source>
                <vertices id="ID62">
                    <input semantic="POSITION" source="#ID60" />
                    <input semantic="NORMAL" source="#ID61" />
                </vertices>
                <triangles count="24" material="Material2">
                    <input offset="0" semantic="VERTEX" source="#ID62" />
                    <p>0 1 2 1 0 3 4 5 6 7 6 5 8 9 10 9 8 11 12 13 14 15 14 13 16 17 18 17 16 19 20 21 22 23 22 21 24 25 26 25 24 27 28 29 30 31 30 29 32 33 34 33 32 35 36 37 38 39 38 37 40 41 42 41 40 43 44 45 46 47 46 45</p>
                </triangles>
            </mesh>
        </geometry>
        <geometry id="ID65">
            <mesh>
                <source id="ID66">
                    <float_array id="ID68" count="24">39.37008 2.842171e-14 78.74016 39.37008 39.37008 78.74016 0 0 78.74016 0 0 0 7.105427e-15 39.37008 0 7.105427e-15 39.37008 78.74016 39.37008 39.37008 0 39.37008 2.842171e-14 0</float_array>
                    <technique_common>
                        <accessor count="8" source="#ID68" stride="3">
                            <param name="X" type="float" />
                            <param name="Y" type="float" />
                            <param name="Z" type="float" />
                        </accessor>
                    </technique_common>
                </source>
                <vertices id="ID67">
                    <input semantic="POSITION" source="#ID66" />
                </vertices>
                <lines count="12" material="Material2">
                    <input offset="0" semantic="VERTEX" source="#ID67" />
                    <p>1 0 0 2 3 2 3 4 4 5 4 6 6 7 7 3 2 5 7 0 5 1 6 1</p>
                </lines>
            </mesh>
        </geometry>
        <geometry id="ID71">
            <mesh>
                <source id="ID74">
                    <float_array id="ID79" count="144">39.37008 39.37008 0 39.37008 0 39.37008 39.37008 0 0 39.37008 39.37008 39.37008 39.37008 39.37008 39.37008 39.37008 39.37008 0 39.37008 0 39.37008 39.37008 0 0 39.37008 39.37008 0 0 0 0 0 39.37008 0 39.37008 0 0 39.37008 0 0 39.37008 39.37008 0 0 0 0 0 39.37008 0 0 39.37008 39.37008 39.37008 39.37008 0 0 39.37008 0 39.37008 39.37008 39.37008 39.37008 39.37008 39.37008 0 39.37008 39.37008 39.37008 39.37008 0 0 39.37008 0 39.37008 0 39.37008 0 39.37008 39.37008 0 0 39.37008 39.37008 39.37008 39.37008 39.37008 39.37008 39.37008 39.37008 0 39.37008 0 39.37008 39.37008 0 0 39.37008 39.37008 0 39.37008 0 0 0 39.37008 0 0 0 0 39.37008 0 0 39.37008 39.37008 0 39.37008 0 0 0 39.37008 0 0 0 39.37008 39.37008 0 0 0 0 0 39.37008 0 39.37008 0 0 39.37008 0 0 39.37008 39.37008 0 0 0 0 0 39.37008</float_array>
                    <technique_common>
                        <accessor count="48" source="#ID79" stride="3">
                            <param name="X" type="float" />
                            <param name="Y" type="float" />
                            <param name="Z" type="float" />
                        </accessor>
                    </technique_common>
                </source>
                <source id="ID75">
                    <float_array id="ID80" count="144">1 0 0 1 0 0 1 0 0 1 0 0 -1 -0 -0 -1 -0 -0 -1 -0 -0 -1 -0 -0 0 0 -1 0 0 -1 0 0 -1 0 0 -1 -0 -0 1 -0 -0 1 -0 -0 1 -0 -0 1 0 1 0 0 1 0 0 1 0 0 1 0 -0 -1 -0 -0 -1 -0 -0 -1 -0 -0 -1 -0 0 0 1 0 0 1 0 0 1 0 0 1 -0 -0 -1 -0 -0 -1 -0 -0 -1 -0 -0 -1 0 -1 0 0 -1 0 0 -1 0 0 -1 0 -0 1 -0 -0 1 -0 -0 1 -0 -0 1 -0 -1 0 0 -1 0 0 -1 0 0 -1 0 0 1 -0 -0 1 -0 -0 1 -0 -0 1 -0 -0</float_array>
                    <technique_common>
                        <accessor count="48" source="#ID80" stride="3">
                            <param name="X" type="float" />
                            <param name="Y" type="float" />
                            <param name="Z" type="float" />
                        </accessor>
                    </technique_common>
                </source>
                <vertices id="ID76">
                    <input semantic="POSITION" source="#ID74" />
                    <input semantic="NORMAL" source="#ID75" />
                </vertices>
                <triangles count="12" material="Material2">
                    <input offset="0" semantic="VERTEX" source="#ID76" />
                    <p>0 1 2 1 0 3 8 9 10 9 8 11 16 17 18 17 16 19 24 25 26 25 24 27 32 33 34 33 32 35 40 41 42 41 40 43</p>
                </triangles>
                <triangles count="12" material="Material3">
                    <input offset="0" semantic="VERTEX" source="#ID76" />
                    <p>4 5 6 7 6 5 12 13 14 15 14 13 20 21 22 23 22 21 28 29 30 31 30 29 36 37 38 39 38 37 44 45 46 47 46 45</p>
                </triangles>
            </mesh>
        </geometry>
        <geometry id="ID83">
            <mesh>
                <source id="ID89">
                    <float_array id="ID93" count="144">39.37008 39.37008 0 39.37008 0 39.37008 39.37008 0 0 39.37008 39.37008 39.37008 39.37008 39.37008 39.37008 39.37008 39.37008 0 39.37008 0 39.37008 39.37008 0 0 39.37008 39.37008 0 0 0 0 0 39.37008 0 39.37008 0 0 39.37008 0 0 39.37008 39.37008 0 0 0 0 0 39.37008 0 0 39.37008 39.37008 39.37008 39.37008 0 0 39.37008 0 39.37008 39.37008 39.37008 39.37008 39.37008 39.37008 0 39.37008 39.37008 39.37008 39.37008 0 0 39.37008 0 39.37008 0 39.37008 0 39.37008 39.37008 0 0 39.37008 39.37008 39.37008 39.37008 39.37008 39.37008 39.37008 39.37008 0 39.37008 0 39.37008 39.37008 0 0 39.37008 39.37008 0 39.37008 0 0 0 39.37008 0 0 0 0 39.37008 0 0 39.37008 39.37008 0 39.37008 0 0 0 39.37008 0 0 0 39.37008 39.37008 0 0 0 0 0 39.37008 0 39.37008 0 0 39.37008 0 0 39.37008 39.37008 0 0 0 0 0 39.37008</float_array>
                    <technique_common>
                        <accessor count="48" source="#ID93" stride="3">
                            <param name="X" type="float" />
                            <param name="Y" type="float" />
                            <param name="Z" type="float" />
                        </accessor>
                    </technique_common>
                </source>
                <source id="ID90">
                    <float_array id="ID94" count="144">1 0 0 1 0 0 1 0 0 1 0 0 -1 -0 -0 -1 -0 -0 -1 -0 -0 -1 -0 -0 0 0 -1 0 0 -1 0 0 -1 0 0 -1 -0 -0 1 -0 -0 1 -0 -0 1 -0 -0 1 0 1 0 0 1 0 0 1 0 0 1 0 -0 -1 -0 -0 -1 -0 -0 -1 -0 -0 -1 -0 0 0 1 0 0 1 0 0 1 0 0 1 -0 -0 -1 -0 -0 -1 -0 -0 -1 -0 -0 -1 0 -1 0 0 -1 0 0 -1 0 0 -1 0 -0 1 -0 -0 1 -0 -0 1 -0 -0 1 -0 -1 0 0 -1 0 0 -1 0 0 -1 0 0 1 -0 -0 1 -0 -0 1 -0 -0 1 -0 -0</float_array>
                    <technique_common>
                        <accessor count="48" source="#ID94" stride="3">
                            <param name="X" type="float" />
                            <param name="Y" type="float" />
                            <param name="Z" type="float" />
                        </accessor>
                    </technique_common>
                </source>
                <source id="ID92">
                    <float_array id="ID95" count="12">1.64042 0 0 1.64042 0 0 1.64042 1.64042 -1.64042 1.64042 -1.64042 0</float_array>
                    <technique_common>
                        <accessor count="6" source="#ID95" stride="2">
                            <param name="S" type="float" />
                            <param name="T" type="float" />
                        </accessor>
                    </technique_common>
                </source>
                <vertices id="ID91">
                    <input semantic="POSITION" source="#ID89" />
                    <input semantic="NORMAL" source="#ID90" />
                </vertices>
                <triangles count="24" material="Material2">
                    <input offset="0" semantic="VERTEX" source="#ID91" />
                    <input offset="1" semantic="TEXCOORD" source="#ID92" />
                    <p>0 0 1 1 2 2 1 1 0 0 3 3 4 3 5 0 6 1 7 2 6 1 5 0 8 4 9 2 10 1 9 2 8 4 11 5 12 5 13 4 14 2 15 1 14 2 13 4 16 1 17 5 18 2 17 5 16 1 19 4 20 4 21 1 22 5 23 2 22 5 21 1 24 0 25 1 26 2 25 1 24 0 27 3 28 3 29 0 30 1 31 2 30 1 29 0 32 3 33 2 34 0 33 2 32 3 35 1 36 1 37 3 38 2 39 0 38 2 37 3 40 4 41 2 42 1 41 2 40 4 43 5 44 5 45 4 46 2 47 1 46 2 45 4</p>
                </triangles>
            </mesh>
        </geometry>
        <geometry id="ID98">
            <mesh>
                <source id="ID101">
                    <float_array id="ID104" count="144">39.37008 39.37008 0 39.37008 0 39.37008 39.37008 0 0 39.37008 39.37008 39.37008 39.37008 39.37008 39.37008 39.37008 39.37008 0 39.37008 0 39.37008 39.37008 0 0 39.37008 39.37008 0 0 0 0 0 39.37008 0 39.37008 0 0 39.37008 0 0 39.37008 39.37008 0 0 0 0 0 39.37008 0 0 39.37008 39.37008 39.37008 39.37008 0 0 39.37008 0 39.37008 39.37008 39.37008 39.37008 39.37008 39.37008 0 39.37008 39.37008 39.37008 39.37008 0 0 39.37008 0 39.37008 0 39.37008 0 39.37008 39.37008 0 0 39.37008 39.37008 39.37008 39.37008 39.37008 39.37008 39.37008 39.37008 0 39.37008 0 39.37008 39.37008 0 0 39.37008 39.37008 0 39.37008 0 0 0 39.37008 0 0 0 0 39.37008 0 0 39.37008 39.37008 0 39.37008 0 0 0 39.37008 0 0 0 39.37008 39.37008 0 0 0 0 0 39.37008 0 39.37008 0 0 39.37008 0 0 39.37008 39.37008 0 0 0 0 0 39.37008</float_array>
                    <technique_common>
                        <accessor count="48" source="#ID104" stride="3">
                            <param name="X" type="float" />
                            <param name="Y" type="float" />
                            <param name="Z" type="float" />
                        </accessor>
                    </technique_common>
                </source>
                <source id="ID102">
                    <float_array id="ID105" count="144">1 0 0 1 0 0 1 0 0 1 0 0 -1 -0 -0 -1 -0 -0 -1 -0 -0 -1 -0 -0 0 0 -1 0 0 -1 0 0 -1 0 0 -1 -0 -0 1 -0 -0 1 -0 -0 1 -0 -0 1 0 1 0 0 1 0 0 1 0 0 1 0 -0 -1 -0 -0 -1 -0 -0 -1 -0 -0 -1 -0 0 0 1 0 0 1 0 0 1 0 0 1 -0 -0 -1 -0 -0 -1 -0 -0 -1 -0 -0 -1 0 -1 0 0 -1 0 0 -1 0 0 -1 0 -0 1 -0 -0 1 -0 -0 1 -0 -0 1 -0 -1 0 0 -1 0 0 -1 0 0 -1 0 0 1 -0 -0 1 -0 -0 1 -0 -0 1 -0 -0</float_array>
                    <technique_common>
                        <accessor count="48" source="#ID105" stride="3">
                            <param name="X" type="float" />
                            <param name="Y" type="float" />
                            <param name="Z" type="float" />
                        </accessor>
                    </technique_common>
                </source>
                <vertices id="ID103">
                    <input semantic="POSITION" source="#ID101" />
                    <input semantic="NORMAL" source="#ID102" />
                </vertices>
                <triangles count="24" material="Material2">
                    <input offset="0" semantic="VERTEX" source="#ID103" />
                    <p>0 1 2 1 0 3 4 5 6 7 6 5 8 9 10 9 8 11 12 13 14 15 14 13 16 17 18 17 16 19 20 21 22 23 22 21 24 25 26 25 24 27 28 29 30 31 30 29 32 33 34 33 32 35 36 37 38 39 38 37 40 41 42 41 40 43 44 45 46 47 46 45</p>
                </triangles>
            </mesh>
        </geometry>
        <geometry id="ID108">
            <mesh>
                <source id="ID109">
                    <float_array id="ID112" count="144">39.37008 39.37008 0 39.37008 0 39.37008 39.37008 0 0 39.37008 39.37008 39.37008 39.37008 39.37008 39.37008 39.37008 39.37008 0 39.37008 0 39.37008 39.37008 0 0 39.37008 39.37008 0 0 0 0 0 39.37008 0 39.37008 0 0 39.37008 0 0 39.37008 39.37008 0 0 0 0 0 39.37008 0 0 39.37008 39.37008 39.37008 39.37008 0 0 39.37008 0 39.37008 39.37008 39.37008 39.37008 39.37008 39.37008 0 39.37008 39.37008 39.37008 39.37008 0 0 39.37008 0 39.37008 0 39.37008 0 39.37008 39.37008 0 0 39.37008 39.37008 39.37008 39.37008 39.37008 39.37008 39.37008 39.37008 0 39.37008 0 39.37008 39.37008 0 0 39.37008 39.37008 0 39.37008 0 0 0 39.37008 0 0 0 0 39.37008 0 0 39.37008 39.37008 0 39.37008 0 0 0 39.37008 0 0 0 39.37008 39.37008 0 0 0 0 0 39.37008 0 39.37008 0 0 39.37008 0 0 39.37008 39.37008 0 0 0 0 0 39.37008</float_array>
                    <technique_common>
                        <accessor count="48" source="#ID112" stride="3">
                            <param name="X" type="float" />
                            <param name="Y" type="float" />
                            <param name="Z" type="float" />
                        </accessor>
                    </technique_common>
                </source>
                <source id="ID110">
                    <float_array id="ID113" count="144">1 0 0 1 0 0 1 0 0 1 0 0 -1 -0 -0 -1 -0 -0 -1 -0 -0 -1 -0 -0 0 0 -1 0 0 -1 0 0 -1 0 0 -1 -0 -0 1 -0 -0 1 -0 -0 1 -0 -0 1 0 1 0 0 1 0 0 1 0 0 1 0 -0 -1 -0 -0 -1 -0 -0 -1 -0 -0 -1 -0 0 0 1 0 0 1 0 0 1 0 0 1 -0 -0 -1 -0 -0 -1 -0 -0 -1 -0 -0 -1 0 -1 0 0 -1 0 0 -1 0 0 -1 0 -0 1 -0 -0 1 -0 -0 1 -0 -0 1 -0 -1 0 0 -1 0 0 -1 0 0 -1 0 0 1 -0 -0 1 -0 -0 1 -0 -0 1 -0 -0</float_array>
                    <technique_common>
                        <accessor count="48" source="#ID113" stride="3">
                            <param name="X" type="float" />
                            <param name="Y" type="float" />
                            <param name="Z" type="float" />
                        </accessor>
                    </technique_common>
                </source>
                <vertices id="ID111">
                    <input semantic="POSITION" source="#ID109" />
                    <input semantic="NORMAL" source="#ID110" />
                </vertices>
                <triangles count="12" material="Material3">
                    <input offset="0" semantic="VERTEX" source="#ID111" />
                    <p>0 1 2 1 0 3 8 9 10 9 8 11 16 17 18 17 16 19 24 25 26 25 24 27 32 33 34 33 32 35 40 41 42 41 40 43</p>
                </triangles>
                <triangles count="12" material="Material2">
                    <input offset="0" semantic="VERTEX" source="#ID111" />
                    <p>4 5 6 7 6 5 12 13 14 15 14 13 20 21 22 23 22 21 28 29 30 31 30 29 36 37 38 39 38 37 44 45 46 47 46 45</p>
                </triangles>
            </mesh>
        </geometry>
        <geometry id="ID183">
            <mesh>
                <source id="ID184">
                    <float_array id="ID187" count="144">39.37008 39.37008 0 39.37008 0 39.37008 39.37008 0 0 39.37008 39.37008 39.37008 39.37008 39.37008 39.37008 39.37008 39.37008 0 39.37008 0 39.37008 39.37008 0 0 39.37008 39.37008 0 0 0 0 0 39.37008 0 39.37008 0 0 39.37008 0 0 39.37008 39.37008 0 0 0 0 0 39.37008 0 0 39.37008 39.37008 39.37008 39.37008 0 0 39.37008 0 39.37008 39.37008 39.37008 39.37008 39.37008 39.37008 0 39.37008 39.37008 39.37008 39.37008 0 0 39.37008 0 39.37008 0 39.37008 0 39.37008 39.37008 0 0 39.37008 39.37008 39.37008 39.37008 39.37008 39.37008 39.37008 39.37008 0 39.37008 0 39.37008 39.37008 0 0 39.37008 39.37008 0 39.37008 0 0 0 39.37008 0 0 0 0 39.37008 0 0 39.37008 39.37008 0 39.37008 0 0 0 39.37008 0 0 0 39.37008 39.37008 0 0 0 0 0 39.37008 0 39.37008 0 0 39.37008 0 0 39.37008 39.37008 0 0 0 0 0 39.37008</float_array>
                    <technique_common>
                        <accessor count="48" source="#ID187" stride="3">
                            <param name="X" type="float" />
                            <param name="Y" type="float" />
                            <param name="Z" type="float" />
                        </accessor>
                    </technique_common>
                </source>
                <source id="ID185">
                    <float_array id="ID188" count="144">1 0 0 1 0 0 1 0 0 1 0 0 -1 -0 -0 -1 -0 -0 -1 -0 -0 -1 -0 -0 0 0 -1 0 0 -1 0 0 -1 0 0 -1 -0 -0 1 -0 -0 1 -0 -0 1 -0 -0 1 0 1 0 0 1 0 0 1 0 0 1 0 -0 -1 -0 -0 -1 -0 -0 -1 -0 -0 -1 -0 0 0 1 0 0 1 0 0 1 0 0 1 -0 -0 -1 -0 -0 -1 -0 -0 -1 -0 -0 -1 0 -1 0 0 -1 0 0 -1 0 0 -1 0 -0 1 -0 -0 1 -0 -0 1 -0 -0 1 -0 -1 0 0 -1 0 0 -1 0 0 -1 0 0 1 -0 -0 1 -0 -0 1 -0 -0 1 -0 -0</float_array>
                    <technique_common>
                        <accessor count="48" source="#ID188" stride="3">
                            <param name="X" type="float" />
                            <param name="Y" type="float" />
                            <param name="Z" type="float" />
                        </accessor>
                    </technique_common>
                </source>
                <vertices id="ID186">
                    <input semantic="POSITION" source="#ID184" />
                    <input semantic="NORMAL" source="#ID185" />
                </vertices>
                <triangles count="24" material="Material2">
                    <input offset="0" semantic="VERTEX" source="#ID186" />
                    <p>0 1 2 1 0 3 4 5 6 7 6 5 8 9 10 9 8 11 12 13 14 15 14 13 16 17 18 17 16 19 20 21 22 23 22 21 24 25 26 25 24 27 28 29 30 31 30 29 32 33 34 33 32 35 36 37 38 39 38 37 40 41 42 41 40 43 44 45 46 47 46 45</p>
                </triangles>
            </mesh>
        </geometry>
    </library_geometries>
    <library_materials>
        <material id="ID7" name="Color_C07">
            <instance_effect url="#ID8" />
        </material>
        <material id="ID12" name="Color_A03">
            <instance_effect url="#ID13" />
        </material>
        <material id="ID28" name="Color_A02">
            <instance_effect url="#ID29" />
        </material>
        <material id="ID39" name="edge_color000255">
            <instance_effect url="#ID40" />
        </material>
        <material id="ID58" name="Color_C06">
            <instance_effect url="#ID59" />
        </material>
        <material id="ID72" name="Color_M03">
            <instance_effect url="#ID73" />
        </material>
        <material id="ID77" name="Color_D07">
            <instance_effect url="#ID78" />
        </material>
        <material id="ID84" name="Translucent_Glass_Tinted">
            <instance_effect url="#ID85" />
        </material>
        <material id="ID99" name="Color_D08">
            <instance_effect url="#ID100" />
        </material>
    </library_materials>
    <library_effects>
        <effect id="ID8">
            <profile_COMMON>
                <technique sid="COMMON">
                    <lambert>
                        <diffuse>
                            <color>0.6 0.2980392 0 1</color>
                        </diffuse>
                    </lambert>
                </technique>
            </profile_COMMON>
        </effect>
        <effect id="ID13">
            <profile_COMMON>
                <technique sid="COMMON">
                    <lambert>
                        <diffuse>
                            <color>1 0.3960784 0.3960784 1</color>
                        </diffuse>
                    </lambert>
                </technique>
            </profile_COMMON>
        </effect>
        <effect id="ID29">
            <profile_COMMON>
                <technique sid="COMMON">
                    <lambert>
                        <diffuse>
                            <color>1 0.6 0.6 1</color>
                        </diffuse>
                    </lambert>
                </technique>
            </profile_COMMON>
        </effect>
        <effect id="ID40">
            <profile_COMMON>
                <technique sid="COMMON">
                    <constant>
                        <transparent opaque="A_ONE">
                            <color>0 0 0 1</color>
                        </transparent>
                        <transparency>
                            <float>1</float>
                        </transparency>
                    </constant>
                </technique>
            </profile_COMMON>
        </effect>
        <effect id="ID59">
            <profile_COMMON>
                <technique sid="COMMON">
                    <lambert>
                        <diffuse>
                            <color>0.8 0.4 0 1</color>
                        </diffuse>
                    </lambert>
                </technique>
            </profile_COMMON>
        </effect>
        <effect id="ID73">
            <profile_COMMON>
                <technique sid="COMMON">
                    <lambert>
                        <diffuse>
                            <color>0.6666667 0.6666667 0.6666667 1</color>
                        </diffuse>
                    </lambert>
                </technique>
            </profile_COMMON>
        </effect>
        <effect id="ID78">
            <profile_COMMON>
                <technique sid="COMMON">
                    <lambert>
                        <diffuse>
                            <color>0.6 0.4470588 0 1</color>
                        </diffuse>
                    </lambert>
                </technique>
            </profile_COMMON>
        </effect>
        <effect id="ID85">
            <profile_COMMON>
                <newparam sid="ID87">
                    <surface type="2D">
                        <init_from>ID86</init_from>
                    </surface>
                </newparam>
                <newparam sid="ID88">
                    <sampler2D>
                        <source>ID87</source>
                    </sampler2D>
                </newparam>
                <technique sid="COMMON">
                    <lambert>
                        <diffuse>
                            <texture texture="ID88" texcoord="UVSET0" />
                        </diffuse>
                        <transparent opaque="RGB_ZERO">
                            <color>0.52 0.52 0.52 1</color>
                        </transparent>
                        <transparency>
                            <float>1</float>
                        </transparency>
                    </lambert>
                </technique>
            </profile_COMMON>
        </effect>
        <effect id="ID100">
            <profile_COMMON>
                <technique sid="COMMON">
                    <lambert>
                        <diffuse>
                            <color>0.4 0.2980392 0 1</color>
                        </diffuse>
                    </lambert>
                </technique>
            </profile_COMMON>
        </effect>
    </library_effects>
    <library_images>
        <image id="ID86">
            <init_from>casa_pared_piedra_min/Translucent_Glass_Tinted.jpg</init_from>
        </image>
    </library_images>
    <scene>
        <instance_visual_scene url="#ID2" />
    </scene>
</COLLADA>
