<?xml version="1.0" encoding="UTF-8" standalone="no" ?>
<COLLADA xmlns="http://www.collada.org/2005/11/COLLADASchema" version="1.4.1">
    <asset>
        <contributor>
            <authoring_tool>SketchUp 24.0.553</authoring_tool>
        </contributor>
        <created>2026-10-04T11:31:47Z</created>
        <modified>2026-10-04T11:31:47Z</modified>
        <unit meter="0.0254" name="inch" />
        <up_axis>Z_UP</up_axis>
    </asset>
    <library_cameras>
        <camera id="ID1" name="skp_camera_Last_Saved_SketchUp_View">
            <optics>
                <technique_common>
                    <perspective>
                        <yfov>35</yfov>
                        <aspect_ratio>0</aspect_ratio>
                        <znear>1</znear>
                        <zfar>1000</zfar>
                    </perspective>
                </technique_common>
            </optics>
        </camera>
    </library_cameras>
    <library_visual_scenes>
        <visual_scene id="ID2">
            <node name="SketchUp">
                <instance_geometry url="#ID3">
                    <bind_material>
                        <technique_common>
                            <instance_material symbol="Material2" target="#ID5">
                                <bind_vertex_input semantic="UVSET0" input_semantic="TEXCOORD" input_set="0" />
                            </instance_material>
                        </technique_common>
                    </bind_material>
                </instance_geometry>
                <node name="skp_camera_Last_Saved_SketchUp_View">
                    <matrix>0.9111717 -0.08789761 0.4025421 111.8893 0.4120269 0.1943801 -0.8901967 -193.6275 0 0.9769803 0.2133298 104.3819 0 0 0 1</matrix>
                    <instance_camera url="#ID1" />
                </node>
            </node>
        </visual_scene>
    </library_visual_scenes>
    <library_geometries>
        <geometry id="ID3">
            <mesh>
                <source id="ID6">
                    <float_array id="ID9" count="2016">52.23454 0 70.86614 49.39351 0 66.92913 52.23454 0 66.92913 2.961036 0 66.92913 2.961036 0 70.86614 3.913007 0 70.86614 40.28157 0 78.74016 4.864979 0 74.80315 40.28157 0 74.80315 4.864979 0 78.74016 5.816951 0 78.74016 41.2356 0 82.67717 41.2356 0 78.74016 5.816951 0 82.67717 6.768922 0 82.67717 42.18963 0 86.61417 42.18963 0 82.67717 6.768922 0 86.61417 7.720894 0 86.61417 43.14366 0 90.55118 43.14366 0 86.61417 7.720894 0 90.55118 8.672865 0 90.55118 44.0977 0 94.48819 44.0977 0 90.55118 8.672865 0 94.48819 9.624837 0 94.48819 45.05173 0 98.4252 45.05173 0 94.48819 9.624837 0 98.4252 10.57681 0 98.4252 46.00576 0 102.3622 46.00576 0 98.4252 10.57681 0 102.3622 11.52878 0 102.3622 46.95979 0 106.2992 46.95979 0 102.3622 11.52878 0 106.2992 12.48075 0 106.2992 47.91382 0 110.2362 47.91382 0 106.2992 12.48075 0 110.2362 55.07557 0 74.80315 55.07557 0 70.86614 3.913007 0 74.80315 46.55247 0 62.99213 49.39351 0 62.99213 21.55458 0 66.92913 43.71144 0 59.05512 46.55247 0 59.05512 21.55458 0 62.99213 40.87041 0 55.11811 43.71144 0 55.11811 20.24931 0 59.05512 20.24931 0 62.99213 38.02938 0 51.1811 40.87041 0 51.1811 18.94404 0 55.11811 18.94404 0 59.05512 35.18835 0 47.24409 38.02938 0 47.24409 17.63877 0 51.1811 17.63877 0 55.11811 32.34732 0 43.30709 35.18835 0 43.30709 16.3335 0 47.24409 16.3335 0 51.1811 29.50629 0 39.37008 32.34732 0 39.37008 15.02823 0 43.30709 15.02823 0 47.24409 26.66526 0 35.43307 29.50629 0 35.43307 13.72297 0 39.37008 13.72297 0 43.30709 12.4177 0 35.43307 26.66526 0 31.49606 12.4177 0 39.37008 23.82423 0 31.49606 11.11243 0 31.49606 23.82423 0 27.55906 11.11243 0 35.43307 20.98319 0 27.55906 9.80716 0 27.55906 20.98319 0 23.62205 9.80716 0 31.49606 18.14216 0 23.62205 8.501891 0 23.62205 18.14216 0 19.68504 8.501891 0 27.55906 15.30113 0 19.68504 7.196623 0 19.68504 15.30113 0 15.74803 7.196623 0 23.62205 5.891354 0 15.74803 12.4601 0 15.74803 5.891354 0 19.68504 4.586085 0 11.81102 12.4601 0 11.81102 4.586085 0 15.74803 9.61907 0 11.81102 6.778039 0 7.874016 9.61907 0 7.874016 3.280817 0 7.874016 3.280817 0 11.81102 3.937008 0 3.937008 6.778039 0 3.937008 1.975548 0 3.937008 0 0 3.937008 1.975548 0 7.874016 0 0 0 3.937008 0 0 1.975548 0 3.937008 0 3.937008 3.937008 0 0 3.937008 1.975548 3.937008 3.937008 0 3.937008 3.937008 0 0 0 0 0 3.937008 0 3.937008 0 3.937008 3.937008 0 0 0 0 0 3.937008 0 3.937008 0 0 3.937008 3.937008 0 3.937008 0 3.937008 3.937008 0 0 3.937008 3.937008 3.937008 6.778039 3.937008 3.937008 3.937008 0 3.937008 3.937008 3.937008 3.937008 6.778039 0 3.937008 6.778039 3.937008 3.937008 6.778039 0 7.874016 6.778039 0 3.937008 6.778039 3.937008 7.874016 9.61907 3.937008 7.874016 6.778039 0 7.874016 6.778039 3.937008 7.874016 9.61907 0 7.874016 9.61907 3.937008 7.874016 9.61907 0 11.81102 9.61907 0 7.874016 9.61907 3.937008 11.81102 12.4601 3.937008 11.81102 9.61907 0 11.81102 9.61907 3.937008 11.81102 12.4601 0 11.81102 12.4601 3.937008 11.81102 12.4601 0 15.74803 12.4601 0 11.81102 12.4601 3.937008 15.74803 15.30113 3.937008 15.74803 12.4601 0 15.74803 12.4601 3.937008 15.74803 15.30113 0 15.74803 15.30113 3.937008 15.74803 15.30113 0 19.68504 15.30113 0 15.74803 15.30113 3.937008 19.68504 18.14216 3.937008 19.68504 15.30113 0 19.68504 15.30113 3.937008 19.68504 18.14216 0 19.68504 18.14216 3.937008 19.68504 18.14216 0 23.62205 18.14216 0 19.68504 18.14216 3.937008 23.62205 20.98319 3.937008 23.62205 18.14216 0 23.62205 18.14216 3.937008 23.62205 20.98319 0 23.62205 20.98319 3.937008 23.62205 20.98319 0 27.55906 20.98319 0 23.62205 20.98319 3.937008 27.55906 23.82423 3.937008 27.55906 20.98319 0 27.55906 20.98319 3.937008 27.55906 23.82423 0 27.55906 23.82423 3.937008 27.55906 23.82423 0 31.49606 23.82423 0 27.55906 23.82423 3.937008 31.49606 26.66526 3.937008 31.49606 23.82423 0 31.49606 23.82423 3.937008 31.49606 26.66526 0 31.49606 26.66526 3.937008 31.49606 26.66526 0 35.43307 26.66526 0 31.49606 26.66526 3.937008 35.43307 29.50629 3.937008 35.43307 26.66526 0 35.43307 26.66526 3.937008 35.43307 29.50629 0 35.43307 29.50629 3.937008 35.43307 29.50629 0 39.37008 29.50629 0 35.43307 29.50629 3.937008 39.37008 32.34732 3.937008 39.37008 29.50629 0 39.37008 29.50629 3.937008 39.37008 32.34732 0 39.37008 32.34732 3.937008 39.37008 32.34732 0 43.30709 32.34732 0 39.37008 32.34732 3.937008 43.30709 35.18835 3.937008 43.30709 32.34732 0 43.30709 32.34732 3.937008 43.30709 35.18835 0 43.30709 35.18835 3.937008 43.30709 35.18835 0 47.24409 35.18835 0 43.30709 35.18835 3.937008 47.24409 38.02938 3.937008 47.24409 35.18835 0 47.24409 35.18835 3.937008 47.24409 38.02938 0 47.24409 38.02938 3.937008 47.24409 38.02938 0 51.1811 38.02938 0 47.24409 38.02938 3.937008 51.1811 40.87041 3.937008 51.1811 38.02938 0 51.1811 38.02938 3.937008 51.1811 40.87041 0 51.1811 40.87041 3.937008 51.1811 40.87041 0 55.11811 40.87041 0 51.1811 40.87041 3.937008 55.11811 43.71144 3.937008 55.11811 40.87041 0 55.11811 40.87041 3.937008 55.11811 43.71144 0 55.11811 43.71144 3.937008 55.11811 43.71144 0 59.05512 43.71144 0 55.11811 43.71144 3.937008 59.05512 46.55247 3.937008 59.05512 43.71144 0 59.05512 43.71144 3.937008 59.05512 46.55247 0 59.05512 46.55247 3.937008 59.05512 46.55247 0 62.99213 46.55247 0 59.05512 46.55247 3.937008 62.99213 49.39351 3.937008 62.99213 46.55247 0 62.99213 46.55247 3.937008 62.99213 49.39351 0 62.99213 49.39351 3.937008 62.99213 49.39351 0 66.92913 49.39351 0 62.99213 49.39351 3.937008 66.92913 52.23454 3.937008 66.92913 49.39351 0 66.92913 49.39351 3.937008 66.92913 52.23454 0 66.92913 52.23454 3.937008 66.92913 52.23454 0 70.86614 52.23454 0 66.92913 52.23454 3.937008 70.86614 55.07557 3.937008 70.86614 52.23454 0 70.86614 52.23454 3.937008 70.86614 55.07557 0 70.86614 55.07557 3.937008 70.86614 55.07557 0 74.80315 55.07557 0 70.86614 55.07557 3.937008 74.80315 55.07557 0 74.80315 40.28157 3.937008 74.80315 40.28157 0 74.80315 55.07557 3.937008 74.80315 40.28157 3.937008 74.80315 40.28157 0 78.74016 40.28157 0 74.80315 40.28157 3.937008 78.74016 41.2356 3.937008 78.74016 40.28157 0 78.74016 40.28157 3.937008 78.74016 41.2356 0 78.74016 41.2356 3.937008 78.74016 41.2356 0 82.67717 41.2356 0 78.74016 41.2356 3.937008 82.67717 42.18963 3.937008 82.67717 41.2356 0 82.67717 41.2356 3.937008 82.67717 42.18963 0 82.67717 42.18963 3.937008 82.67717 42.18963 0 86.61417 42.18963 0 82.67717 42.18963 3.937008 86.61417 43.14366 3.937008 86.61417 42.18963 0 86.61417 42.18963 3.937008 86.61417 43.14366 0 86.61417 43.14366 3.937008 86.61417 43.14366 0 90.55118 43.14366 0 86.61417 43.14366 3.937008 90.55118 44.0977 3.937008 90.55118 43.14366 0 90.55118 43.14366 3.937008 90.55118 44.0977 0 90.55118 44.0977 3.937008 90.55118 44.0977 0 94.48819 44.0977 0 90.55118 44.0977 3.937008 94.48819 45.05173 3.937008 94.48819 44.0977 0 94.48819 44.0977 3.937008 94.48819 45.05173 0 94.48819 45.05173 3.937008 94.48819 45.05173 0 98.4252 45.05173 0 94.48819 45.05173 3.937008 98.4252 46.00576 3.937008 98.4252 45.05173 0 98.4252 45.05173 3.937008 98.4252 46.00576 0 98.4252 46.00576 3.937008 98.4252 46.00576 0 102.3622 46.00576 0 98.4252 46.00576 3.937008 102.3622 46.95979 3.937008 102.3622 46.00576 0 102.3622 46.00576 3.937008 102.3622 46.95979 0 102.3622 46.95979 3.937008 102.3622 46.95979 0 106.2992 46.95979 0 102.3622 46.95979 3.937008 106.2992 47.91382 3.937008 106.2992 46.95979 0 106.2992 46.95979 3.937008 106.2992 47.91382 0 106.2992 47.91382 3.937008 106.2992 47.91382 0 110.2362 47.91382 0 106.2992 47.91382 3.937008 110.2362 47.91382 0 110.2362 12.48075 3.937008 110.2362 12.48075 0 110.2362 47.91382 3.937008 110.2362 12.48075 3.937008 110.2362 12.48075 0 106.2992 12.48075 0 110.2362 12.48075 3.937008 106.2992 12.48075 0 106.2992 11.52878 3.937008 106.2992 11.52878 0 106.2992 12.48075 3.937008 106.2992 11.52878 3.937008 106.2992 11.52878 0 102.3622 11.52878 0 106.2992 11.52878 3.937008 102.3622 11.52878 0 102.3622 10.57681 3.937008 102.3622 10.57681 0 102.3622 11.52878 3.937008 102.3622 10.57681 3.937008 102.3622 10.57681 0 98.4252 10.57681 0 102.3622 10.57681 3.937008 98.4252 10.57681 0 98.4252 9.624837 3.937008 98.4252 9.624837 0 98.4252 10.57681 3.937008 98.4252 9.624837 3.937008 98.4252 9.624837 0 94.48819 9.624837 0 98.4252 9.624837 3.937008 94.48819 9.624837 0 94.48819 8.672865 3.937008 94.48819 8.672865 0 94.48819 9.624837 3.937008 94.48819 8.672865 3.937008 94.48819 8.672865 0 90.55118 8.672865 0 94.48819 8.672865 3.937008 90.55118 8.672865 0 90.55118 7.720894 3.937008 90.55118 7.720894 0 90.55118 8.672865 3.937008 90.55118 7.720894 3.937008 90.55118 7.720894 0 86.61417 7.720894 0 90.55118 7.720894 3.937008 86.61417 7.720894 0 86.61417 6.768922 3.937008 86.61417 6.768922 0 86.61417 7.720894 3.937008 86.61417 6.768922 3.937008 86.61417 6.768922 0 82.67717 6.768922 0 86.61417 6.768922 3.937008 82.67717 6.768922 0 82.67717 5.816951 3.937008 82.67717 5.816951 0 82.67717 6.768922 3.937008 82.67717 5.816951 3.937008 82.67717 5.816951 0 78.74016 5.816951 0 82.67717 5.816951 3.937008 78.74016 5.816951 0 78.74016 4.864979 3.937008 78.74016 4.864979 0 78.74016 5.816951 3.937008 78.74016 4.864979 3.937008 78.74016 4.864979 0 74.80315 4.864979 0 78.74016 4.864979 3.937008 74.80315 4.864979 0 74.80315 3.913007 3.937008 74.80315 3.913007 0 74.80315 4.864979 3.937008 74.80315 3.913007 3.937008 74.80315 3.913007 0 70.86614 3.913007 0 74.80315 3.913007 3.937008 70.86614 3.913007 0 70.86614 2.961036 3.937008 70.86614 2.961036 0 70.86614 3.913007 3.937008 70.86614 2.961036 3.937008 70.86614 2.961036 0 66.92913 2.961036 0 70.86614 2.961036 3.937008 66.92913 21.55458 3.937008 66.92913 2.961036 0 66.92913 2.961036 3.937008 66.92913 21.55458 0 66.92913 21.55458 3.937008 66.92913 21.55458 0 62.99213 21.55458 0 66.92913 21.55458 3.937008 62.99213 21.55458 0 62.99213 20.24931 3.937008 62.99213 20.24931 0 62.99213 21.55458 3.937008 62.99213 20.24931 3.937008 62.99213 20.24931 0 59.05512 20.24931 0 62.99213 20.24931 3.937008 59.05512 20.24931 0 59.05512 18.94404 3.937008 59.05512 18.94404 0 59.05512 20.24931 3.937008 59.05512 18.94404 3.937008 59.05512 18.94404 0 55.11811 18.94404 0 59.05512 18.94404 3.937008 55.11811 18.94404 0 55.11811 17.63877 3.937008 55.11811 17.63877 0 55.11811 18.94404 3.937008 55.11811 17.63877 3.937008 55.11811 17.63877 0 51.1811 17.63877 0 55.11811 17.63877 3.937008 51.1811 17.63877 0 51.1811 16.3335 3.937008 51.1811 16.3335 0 51.1811 17.63877 3.937008 51.1811 16.3335 3.937008 51.1811 16.3335 0 47.24409 16.3335 0 51.1811 16.3335 3.937008 47.24409 16.3335 0 47.24409 15.02823 3.937008 47.24409 15.02823 0 47.24409 16.3335 3.937008 47.24409 15.02823 3.937008 47.24409 15.02823 0 43.30709 15.02823 0 47.24409 15.02823 3.937008 43.30709 15.02823 0 43.30709 13.72297 3.937008 43.30709 13.72297 0 43.30709 15.02823 3.937008 43.30709 13.72297 3.937008 43.30709 13.72297 0 39.37008 13.72297 0 43.30709 13.72297 3.937008 39.37008 13.72297 0 39.37008 12.4177 3.937008 39.37008 12.4177 0 39.37008 13.72297 3.937008 39.37008 12.4177 3.937008 39.37008 12.4177 0 35.43307 12.4177 0 39.37008 12.4177 3.937008 35.43307 12.4177 0 35.43307 11.11243 3.937008 35.43307 11.11243 0 35.43307 12.4177 3.937008 35.43307 11.11243 3.937008 35.43307 11.11243 0 31.49606 11.11243 0 35.43307 11.11243 3.937008 31.49606 11.11243 0 31.49606 9.80716 3.937008 31.49606 9.80716 0 31.49606 11.11243 3.937008 31.49606 9.80716 3.937008 31.49606 9.80716 0 27.55906 9.80716 0 31.49606 9.80716 3.937008 27.55906 9.80716 0 27.55906 8.501891 3.937008 27.55906 8.501891 0 27.55906 9.80716 3.937008 27.55906 8.501891 3.937008 27.55906 8.501891 0 23.62205 8.501891 0 27.55906 8.501891 3.937008 23.62205 8.501891 0 23.62205 7.196623 3.937008 23.62205 7.196623 0 23.62205 8.501891 3.937008 23.62205 7.196623 3.937008 23.62205 7.196623 0 19.68504 7.196623 0 23.62205 7.196623 3.937008 19.68504 7.196623 0 19.68504 5.891354 3.937008 19.68504 5.891354 0 19.68504 7.196623 3.937008 19.68504 5.891354 3.937008 19.68504 5.891354 0 15.74803 5.891354 0 19.68504 5.891354 3.937008 15.74803 5.891354 0 15.74803 4.586085 3.937008 15.74803 4.586085 0 15.74803 5.891354 3.937008 15.74803 4.586085 3.937008 15.74803 4.586085 0 11.81102 4.586085 0 15.74803 4.586085 3.937008 11.81102 4.586085 0 11.81102 3.280817 3.937008 11.81102 3.280817 0 11.81102 4.586085 3.937008 11.81102 3.280817 3.937008 11.81102 3.280817 0 7.874016 3.280817 0 11.81102 3.280817 3.937008 7.874016 3.280817 0 7.874016 1.975548 3.937008 7.874016 1.975548 0 7.874016 3.280817 3.937008 7.874016 1.975548 3.937008 7.874016 1.975548 0 3.937008 1.975548 0 7.874016 1.975548 3.937008 3.937008 4.864979 3.937008 78.74016 40.28157 3.937008 74.80315 4.864979 3.937008 74.80315 40.28157 3.937008 78.74016 5.816951 3.937008 78.74016 5.816951 3.937008 82.67717 41.2356 3.937008 78.74016 41.2356 3.937008 82.67717 6.768922 3.937008 82.67717 6.768922 3.937008 86.61417 42.18963 3.937008 82.67717 42.18963 3.937008 86.61417 7.720894 3.937008 86.61417 7.720894 3.937008 90.55118 43.14366 3.937008 86.61417 43.14366 3.937008 90.55118 8.672865 3.937008 90.55118 8.672865 3.937008 94.48819 44.0977 3.937008 90.55118 44.0977 3.937008 94.48819 9.624837 3.937008 94.48819 9.624837 3.937008 98.4252 45.05173 3.937008 94.48819 45.05173 3.937008 98.4252 10.57681 3.937008 98.4252 10.57681 3.937008 102.3622 46.00576 3.937008 98.4252 46.00576 3.937008 102.3622 11.52878 3.937008 102.3622 11.52878 3.937008 106.2992 46.95979 3.937008 102.3622 46.95979 3.937008 106.2992 12.48075 3.937008 106.2992 12.48075 3.937008 110.2362 47.91382 3.937008 106.2992 47.91382 3.937008 110.2362 0 3.937008 3.937008 3.937008 3.937008 0 0 3.937008 0 3.937008 3.937008 3.937008 1.975548 3.937008 3.937008 6.778039 3.937008 3.937008 6.778039 3.937008 7.874016 1.975548 3.937008 7.874016 9.61907 3.937008 7.874016 3.280817 3.937008 7.874016 9.61907 3.937008 11.81102 3.280817 3.937008 11.81102 12.4601 3.937008 11.81102 4.586085 3.937008 11.81102 4.586085 3.937008 15.74803 12.4601 3.937008 15.74803 5.891354 3.937008 15.74803 5.891354 3.937008 19.68504 15.30113 3.937008 15.74803 7.196623 3.937008 19.68504 15.30113 3.937008 19.68504 7.196623 3.937008 23.62205 18.14216 3.937008 19.68504 8.501891 3.937008 23.62205 18.14216 3.937008 23.62205 8.501891 3.937008 27.55906 20.98319 3.937008 23.62205 9.80716 3.937008 27.55906 20.98319 3.937008 27.55906 9.80716 3.937008 31.49606 23.82423 3.937008 27.55906 11.11243 3.937008 31.49606 23.82423 3.937008 31.49606 11.11243 3.937008 35.43307 26.66526 3.937008 31.49606 12.4177 3.937008 35.43307 26.66526 3.937008 35.43307 12.4177 3.937008 39.37008 29.50629 3.937008 35.43307 13.72297 3.937008 39.37008 29.50629 3.937008 39.37008 13.72297 3.937008 43.30709 32.34732 3.937008 39.37008 15.02823 3.937008 43.30709 32.34732 3.937008 43.30709 15.02823 3.937008 47.24409 35.18835 3.937008 43.30709 16.3335 3.937008 47.24409 35.18835 3.937008 47.24409 16.3335 3.937008 51.1811 38.02938 3.937008 47.24409 17.63877 3.937008 51.1811 38.02938 3.937008 51.1811 17.63877 3.937008 55.11811 40.87041 3.937008 51.1811 18.94404 3.937008 55.11811 40.87041 3.937008 55.11811 18.94404 3.937008 59.05512 43.71144 3.937008 55.11811 20.24931 3.937008 59.05512 43.71144 3.937008 59.05512 20.24931 3.937008 62.99213 46.55247 3.937008 59.05512 21.55458 3.937008 62.99213 46.55247 3.937008 62.99213 21.55458 3.937008 66.92913 49.39351 3.937008 62.99213 49.39351 3.937008 66.92913 2.961036 3.937008 66.92913 2.961036 3.937008 70.86614 52.23454 3.937008 66.92913 52.23454 3.937008 70.86614 3.913007 3.937008 70.86614 3.913007 3.937008 74.80315 55.07557 3.937008 70.86614 55.07557 3.937008 74.80315</float_array>
                    <technique_common>
                        <accessor count="672" source="#ID9" stride="3">
                            <param name="X" type="float" />
                            <param name="Y" type="float" />
                            <param name="Z" type="float" />
                        </accessor>
                    </technique_common>
                </source>
                <source id="ID7">
                    <float_array id="ID10" count="2016">0 -1 0 0 -1 0 0 -1 0 0 -1 0 0 -1 0 0 -1 0 0 -1 0 0 -1 0 0 -1 0 0 -1 0 0 -1 0 0 -1 0 0 -1 0 0 -1 0 0 -1 0 0 -1 0 0 -1 0 0 -1 0 0 -1 0 0 -1 0 0 -1 0 0 -1 0 0 -1 0 0 -1 0 0 -1 0 0 -1 0 0 -1 0 0 -1 0 0 -1 0 0 -1 0 0 -1 0 0 -1 0 0 -1 0 0 -1 0 0 -1 0 0 -1 0 0 -1 0 0 -1 0 0 -1 0 0 -1 0 0 -1 0 0 -1 0 0 -1 0 0 -1 0 0 -1 0 0 -1 0 0 -1 0 0 -1 0 0 -1 0 0 -1 0 0 -1 0 0 -1 0 0 -1 0 0 -1 0 0 -1 0 0 -1 0 0 -1 0 0 -1 0 0 -1 0 0 -1 0 0 -1 0 0 -1 0 0 -1 0 0 -1 0 0 -1 0 0 -1 0 0 -1 0 0 -1 0 0 -1 0 0 -1 0 0 -1 0 0 -1 0 0 -1 0 0 -1 0 0 -1 0 0 -1 0 0 -1 0 0 -1 0 0 -1 0 0 -1 0 0 -1 0 0 -1 0 0 -1 0 0 -1 0 0 -1 0 0 -1 0 0 -1 0 0 -1 0 0 -1 0 0 -1 0 0 -1 0 0 -1 0 0 -1 0 0 -1 0 0 -1 0 0 -1 0 0 -1 0 0 -1 0 0 -1 0 0 -1 0 0 -1 0 0 -1 0 0 -1 0 0 -1 0 0 -1 0 0 -1 0 0 -1 0 0 -1 0 0 -1 0 0 -1 0 0 -1 0 0 -1 0 -7.193373e-15 0 1 -7.193373e-15 0 1 -7.193373e-15 0 1 -7.193373e-15 0 1 -1 -0 -0 -1 -0 -0 -1 -0 -0 -1 -0 -0 0 0 -1 0 0 -1 0 0 -1 0 0 -1 1 0 -0 1 0 -0 1 0 -0 1 0 -0 0 0 -1 0 0 -1 0 0 -1 0 0 -1 1 0 -0 1 0 -0 1 0 -0 1 0 -0 0 0 -1 0 0 -1 0 0 -1 0 0 -1 1 0 -0 1 0 -0 1 0 -0 1 0 -0 5.002006e-15 0 -1 5.002006e-15 0 -1 5.002006e-15 0 -1 5.002006e-15 0 -1 1 0 -0 1 0 -0 1 0 -0 1 0 -0 5.002006e-15 0 -1 5.002006e-15 0 -1 5.002006e-15 0 -1 5.002006e-15 0 -1 1 0 -0 1 0 -0 1 0 -0 1 0 -0 5.002006e-15 0 -1 5.002006e-15 0 -1 5.002006e-15 0 -1 5.002006e-15 0 -1 1 0 -0 1 0 -0 1 0 -0 1 0 -0 5.002006e-15 0 -1 5.002006e-15 0 -1 5.002006e-15 0 -1 5.002006e-15 0 -1 1 0 -0 1 0 -0 1 0 -0 1 0 -0 5.002006e-15 0 -1 5.002006e-15 0 -1 5.002006e-15 0 -1 5.002006e-15 0 -1 1 0 -0 1 0 -0 1 0 -0 1 0 -0 5.002006e-15 0 -1 5.002006e-15 0 -1 5.002006e-15 0 -1 5.002006e-15 0 -1 1 0 -0 1 0 -0 1 0 -0 1 0 -0 0 0 -1 0 0 -1 0 0 -1 0 0 -1 1 0 -0 1 0 -0 1 0 -0 1 0 -0 0 0 -1 0 0 -1 0 0 -1 0 0 -1 1 0 -0 1 0 -0 1 0 -0 1 0 -0 0 0 -1 0 0 -1 0 0 -1 0 0 -1 1 0 -0 1 0 -0 1 0 -0 1 0 -0 0 0 -1 0 0 -1 0 0 -1 0 0 -1 1 0 -0 1 0 -0 1 0 -0 1 0 -0 0 0 -1 0 0 -1 0 0 -1 0 0 -1 1 0 -0 1 0 -0 1 0 -0 1 0 -0 0 0 -1 0 0 -1 0 0 -1 0 0 -1 1 0 -0 1 0 -0 1 0 -0 1 0 -0 0 0 -1 0 0 -1 0 0 -1 0 0 -1 1 0 -0 1 0 -0 1 0 -0 1 0 -0 0 0 -1 0 0 -1 0 0 -1 0 0 -1 1 0 -0 1 0 -0 1 0 -0 1 0 -0 0 0 -1 0 0 -1 0 0 -1 0 0 -1 1 0 -0 1 0 -0 1 0 -0 1 0 -0 0 0 -1 0 0 -1 0 0 -1 0 0 -1 1 0 -0 1 0 -0 1 0 -0 1 0 -0 -0 -0 1 -0 -0 1 -0 -0 1 -0 -0 1 1 0 -0 1 0 -0 1 0 -0 1 0 -0 0 0 -1 0 0 -1 0 0 -1 0 0 -1 1 0 -0 1 0 -0 1 0 -0 1 0 -0 0 0 -1 0 0 -1 0 0 -1 0 0 -1 1 0 -0 1 0 -0 1 0 -0 1 0 -0 0 0 -1 0 0 -1 0 0 -1 0 0 -1 1 0 -0 1 0 -0 1 0 -0 1 0 -0 0 0 -1 0 0 -1 0 0 -1 0 0 -1 1 0 -0 1 0 -0 1 0 -0 1 0 -0 0 0 -1 0 0 -1 0 0 -1 0 0 -1 1 0 -0 1 0 -0 1 0 -0 1 0 -0 0 0 -1 0 0 -1 0 0 -1 0 0 -1 1 0 -0 1 0 -0 1 0 -0 1 0 -0 0 0 -1 0 0 -1 0 0 -1 0 0 -1 1 0 -0 1 0 -0 1 0 -0 1 0 -0 0 0 -1 0 0 -1 0 0 -1 0 0 -1 1 0 -0 1 0 -0 1 0 -0 1 0 -0 -0 -0 1 -0 -0 1 -0 -0 1 -0 -0 1 -1 -0 -0 -1 -0 -0 -1 -0 -0 -1 -0 -0 0 0 1 0 0 1 0 0 1 0 0 1 -1 -0 -0 -1 -0 -0 -1 -0 -0 -1 -0 -0 0 0 1 0 0 1 0 0 1 0 0 1 -1 -0 -0 -1 -0 -0 -1 -0 -0 -1 -0 -0 0 0 1 0 0 1 0 0 1 0 0 1 -1 -0 -0 -1 -0 -0 -1 -0 -0 -1 -0 -0 0 0 1 0 0 1 0 0 1 0 0 1 -1 -0 -0 -1 -0 -0 -1 -0 -0 -1 -0 -0 0 0 1 0 0 1 0 0 1 0 0 1 -1 -0 -0 -1 -0 -0 -1 -0 -0 -1 -0 -0 0 0 1 0 0 1 0 0 1 0 0 1 -1 -0 -0 -1 -0 -0 -1 -0 -0 -1 -0 -0 0 0 1 0 0 1 0 0 1 0 0 1 -1 -0 -0 -1 -0 -0 -1 -0 -0 -1 -0 -0 0 0 1 0 0 1 0 0 1 0 0 1 -1 -0 -0 -1 -0 -0 -1 -0 -0 -1 -0 -0 0 0 1 0 0 1 0 0 1 0 0 1 -1 -0 -0 -1 -0 -0 -1 -0 -0 -1 -0 -0 0 0 1 0 0 1 0 0 1 0 0 1 -1 -0 -0 -1 -0 -0 -1 -0 -0 -1 -0 -0 -4.782334e-15 -3.245238e-46 -1 -4.782334e-15 -3.245238e-46 -1 -4.782334e-15 -3.245238e-46 -1 -4.782334e-15 -3.245238e-46 -1 -1 -0 -0 -1 -0 -0 -1 -0 -0 -1 -0 -0 0 0 1 0 0 1 0 0 1 0 0 1 -1 -0 -0 -1 -0 -0 -1 -0 -0 -1 -0 -0 0 0 1 0 0 1 0 0 1 0 0 1 -1 -0 -0 -1 -0 -0 -1 -0 -0 -1 -0 -0 0 0 1 0 0 1 0 0 1 0 0 1 -1 -0 -0 -1 -0 -0 -1 -0 -0 -1 -0 -0 0 0 1 0 0 1 0 0 1 0 0 1 -1 -0 -0 -1 -0 -0 -1 -0 -0 -1 -0 -0 0 0 1 0 0 1 0 0 1 0 0 1 -1 -0 -0 -1 -0 -0 -1 -0 -0 -1 -0 -0 0 0 1 0 0 1 0 0 1 0 0 1 -1 -0 -0 -1 -0 -0 -1 -0 -0 -1 -0 -0 0 0 1 0 0 1 0 0 1 0 0 1 -1 -0 -0 -1 -0 -0 -1 -0 -0 -1 -0 -0 0 0 1 0 0 1 0 0 1 0 0 1 -1 -0 -0 -1 -0 -0 -1 -0 -0 -1 -0 -0 0 0 1 0 0 1 0 0 1 0 0 1 -1 -0 -0 -1 -0 -0 -1 -0 -0 -1 -0 -0 0 0 1 0 0 1 0 0 1 0 0 1 -1 -0 -0 -1 -0 -0 -1 -0 -0 -1 -0 -0 0 0 1 0 0 1 0 0 1 0 0 1 -1 -0 -0 -1 -0 -0 -1 -0 -0 -1 -0 -0 0 0 1 0 0 1 0 0 1 0 0 1 -1 -0 -0 -1 -0 -0 -1 -0 -0 -1 -0 -0 0 0 1 0 0 1 0 0 1 0 0 1 -1 -0 -0 -1 -0 -0 -1 -0 -0 -1 -0 -0 0 0 1 0 0 1 0 0 1 0 0 1 -1 -0 -0 -1 -0 -0 -1 -0 -0 -1 -0 -0 0 0 1 0 0 1 0 0 1 0 0 1 -1 -0 -0 -1 -0 -0 -1 -0 -0 -1 -0 -0 -0 1 -0 -0 1 -0 -0 1 -0 -0 1 -0 -0 1 -0 -0 1 -0 -0 1 -0 -0 1 -0 -0 1 -0 -0 1 -0 -0 1 -0 -0 1 -0 -0 1 -0 -0 1 -0 -0 1 -0 -0 1 -0 -0 1 -0 -0 1 -0 -0 1 -0 -0 1 -0 -0 1 -0 -0 1 -0 -0 1 -0 -0 1 -0 -0 1 -0 -0 1 -0 -0 1 -0 -0 1 -0 -0 1 -0 -0 1 -0 -0 1 -0 -0 1 -0 -0 1 -0 -0 1 -0 -0 1 -0 -0 1 -0 -0 1 -0 -0 1 -0 -0 1 -0 -0 1 -0 -0 1 -0 -0 1 -0 -0 1 -0 -0 1 -0 -0 1 -0 -0 1 -0 -0 1 -0 -0 1 -0 -0 1 -0 -0 1 -0 -0 1 -0 -0 1 -0 -0 1 -0 -0 1 -0 -0 1 -0 -0 1 -0 -0 1 -0 -0 1 -0 -0 1 -0 -0 1 -0 -0 1 -0 -0 1 -0 -0 1 -0 -0 1 -0 -0 1 -0 -0 1 -0 -0 1 -0 -0 1 -0 -0 1 -0 -0 1 -0 -0 1 -0 -0 1 -0 -0 1 -0 -0 1 -0 -0 1 -0 -0 1 -0 -0 1 -0 -0 1 -0 -0 1 -0 -0 1 -0 -0 1 -0 -0 1 -0 -0 1 -0 -0 1 -0 -0 1 -0 -0 1 -0 -0 1 -0 -0 1 -0 -0 1 -0 -0 1 -0 -0 1 -0 -0 1 -0 -0 1 -0 -0 1 -0 -0 1 -0 -0 1 -0 -0 1 -0 -0 1 -0 -0 1 -0 -0 1 -0 -0 1 -0 -0 1 -0 -0 1 -0 -0 1 -0 -0 1 -0 -0 1 -0 -0 1 -0 -0 1 -0 -0 1 -0 -0 1 -0 -0 1 -0 -0 1 -0</float_array>
                    <technique_common>
                        <accessor count="672" source="#ID10" stride="3">
                            <param name="X" type="float" />
                            <param name="Y" type="float" />
                            <param name="Z" type="float" />
                        </accessor>
                    </technique_common>
                </source>
                <vertices id="ID8">
                    <input semantic="POSITION" source="#ID6" />
                    <input semantic="NORMAL" source="#ID7" />
                </vertices>
                <triangles count="444" material="Material2">
                    <input offset="0" semantic="VERTEX" source="#ID8" />
                    <p>0 1 2 1 0 3 3 0 4 4 0 5 6 7 8 7 6 9 9 6 10 11 6 12 6 11 10 10 11 13 13 11 14 15 11 16 11 15 14 14 15 17 17 15 18 19 15 20 15 19 18 18 19 21 21 19 22 23 19 24 19 23 22 22 23 25 25 23 26 27 23 28 23 27 26 26 27 29 29 27 30 31 27 32 27 31 30 30 31 33 33 31 34 35 31 36 31 35 34 34 35 37 37 35 38 39 35 40 35 39 38 38 39 41 42 0 43 0 42 5 5 42 44 44 42 8 44 8 7 1 45 46 45 1 47 47 1 3 45 48 49 48 45 50 50 45 47 48 51 52 51 48 53 53 48 54 54 48 50 51 55 56 55 51 57 57 51 58 58 51 53 55 59 60 59 55 61 61 55 62 62 55 57 59 63 64 63 59 65 65 59 66 66 59 61 63 67 68 67 63 69 69 63 70 70 63 65 67 71 72 71 67 73 73 67 74 74 67 69 71 75 76 75 71 77 77 71 73 78 79 80 79 78 81 81 78 76 81 76 75 82 83 84 83 82 85 85 82 80 85 80 79 86 87 88 87 86 89 89 86 84 89 84 83 90 91 92 91 90 93 93 90 88 93 88 87 92 94 95 94 92 96 96 92 91 95 97 98 97 95 99 99 95 94 100 101 102 101 100 103 103 100 104 104 100 98 104 98 97 101 105 106 105 101 107 105 107 108 107 101 109 109 101 103 105 110 111 110 105 108 112 113 114 113 112 115 116 117 118 117 116 119 120 121 122 121 120 123 124 125 126 125 124 127 128 129 130 129 128 131 132 133 134 133 132 135 136 137 138 137 136 139 140 141 142 141 140 143 144 145 146 145 144 147 148 149 150 149 148 151 152 153 154 153 152 155 156 157 158 157 156 159 160 161 162 161 160 163 164 165 166 165 164 167 168 169 170 169 168 171 172 173 174 173 172 175 176 177 178 177 176 179 180 181 182 181 180 183 184 185 186 185 184 187 188 189 190 189 188 191 192 193 194 193 192 195 196 197 198 197 196 199 200 201 202 201 200 203 204 205 206 205 204 207 208 209 210 209 208 211 212 213 214 213 212 215 216 217 218 217 216 219 220 221 222 221 220 223 224 225 226 225 224 227 228 229 230 229 228 231 232 233 234 233 232 235 236 237 238 237 236 239 240 241 242 241 240 243 244 245 246 245 244 247 248 249 250 249 248 251 252 253 254 253 252 255 256 257 258 257 256 259 260 261 262 261 260 263 264 265 266 265 264 267 268 269 270 269 268 271 272 273 274 273 272 275 276 277 278 277 276 279 280 281 282 281 280 283 284 285 286 285 284 287 288 289 290 289 288 291 292 293 294 293 292 295 296 297 298 297 296 299 300 301 302 301 300 303 304 305 306 305 304 307 308 309 310 309 308 311 312 313 314 313 312 315 316 317 318 317 316 319 320 321 322 321 320 323 324 325 326 325 324 327 328 329 330 329 328 331 332 333 334 333 332 335 336 337 338 337 336 339 340 341 342 341 340 343 344 345 346 345 344 347 348 349 350 349 348 351 352 353 354 353 352 355 356 357 358 357 356 359 360 361 362 361 360 363 364 365 366 365 364 367 368 369 370 369 368 371 372 373 374 373 372 375 376 377 378 377 376 379 380 381 382 381 380 383 384 385 386 385 384 387 388 389 390 389 388 391 392 393 394 393 392 395 396 397 398 397 396 399 400 401 402 401 400 403 404 405 406 405 404 407 408 409 410 409 408 411 412 413 414 413 412 415 416 417 418 417 416 419 420 421 422 421 420 423 424 425 426 425 424 427 428 429 430 429 428 431 432 433 434 433 432 435 436 437 438 437 436 439 440 441 442 441 440 443 444 445 446 445 444 447 448 449 450 449 448 451 452 453 454 453 452 455 456 457 458 457 456 459 460 461 462 461 460 463 464 465 466 465 464 467 468 469 470 469 468 471 472 473 474 473 472 475 476 477 478 477 476 479 480 481 482 481 480 483 484 485 486 485 484 487 488 489 490 489 488 491 492 493 494 493 492 495 496 497 498 497 496 499 500 501 502 501 500 503 504 505 506 505 504 507 508 509 510 509 508 511 512 513 514 513 512 515 516 517 518 517 516 519 520 521 522 521 520 523 524 525 526 525 524 527 528 529 530 529 528 531 532 533 534 533 532 535 536 537 538 537 536 539 540 541 542 541 540 543 544 545 546 545 544 547 548 549 550 549 548 551 552 553 554 553 552 555 556 557 558 557 556 559 560 561 562 561 560 563 563 560 564 563 564 565 563 565 566 566 565 567 567 565 568 567 568 569 567 569 570 570 569 571 571 569 572 571 572 573 571 573 574 574 573 575 575 573 576 575 576 577 575 577 578 578 577 579 579 577 580 579 580 581 579 581 582 582 581 583 583 581 584 583 584 585 583 585 586 586 585 587 587 585 588 587 588 589 587 589 590 590 589 591 591 589 592 591 592 593 591 593 594 594 593 595 596 597 598 597 596 599 599 596 600 599 600 601 601 600 602 602 600 603 602 603 604 604 603 605 604 605 606 606 605 607 606 607 608 608 607 609 608 609 610 608 610 611 611 610 612 611 612 613 611 613 614 614 613 615 614 615 616 616 615 617 616 617 618 618 617 619 618 619 620 620 619 621 620 621 622 622 621 623 622 623 624 624 623 625 624 625 626 626 625 627 626 627 628 628 627 629 628 629 630 630 629 631 630 631 632 632 631 633 632 633 634 634 633 635 634 635 636 636 635 637 636 637 638 638 637 639 638 639 640 640 639 641 640 641 642 642 641 643 642 643 644 644 643 645 644 645 646 646 645 647 646 647 648 648 647 649 648 649 650 650 649 651 650 651 652 652 651 653 652 653 654 654 653 655 654 655 656 656 655 657 656 657 658 658 657 659 658 659 660 660 659 661 660 661 662 662 661 663 663 661 664 663 664 665 663 665 666 666 665 667 667 665 668 667 668 669 667 669 670 670 669 671 671 669 562 671 562 561</p>
                </triangles>
            </mesh>
        </geometry>
    </library_geometries>
    <library_materials>
        <material id="ID5" name="material">
            <instance_effect url="#ID4" />
        </material>
    </library_materials>
    <library_effects>
        <effect id="ID4">
            <profile_COMMON>
                <technique sid="COMMON">
                    <lambert>
                        <diffuse>
                            <color>1 1 1 1</color>
                        </diffuse>
                    </lambert>
                </technique>
            </profile_COMMON>
        </effect>
    </library_effects>
    <scene>
        <instance_visual_scene url="#ID2" />
    </scene>
</COLLADA>
