<?xml version="1.0" encoding="UTF-8" standalone="no" ?>
<COLLADA xmlns="http://www.collada.org/2005/11/COLLADASchema" version="1.4.1">
    <asset>
        <contributor>
            <authoring_tool>SketchUp 24.0.553</authoring_tool>
        </contributor>
        <created>2026-09-25T10:16:56Z</created>
        <modified>2026-09-25T10:16:56Z</modified>
        <unit meter="0.0254" name="inch" />
        <up_axis>Z_UP</up_axis>
    </asset>
    <library_cameras>
        <camera id="ID1" name="skp_camera_Last_Saved_SketchUp_View">
            <optics>
                <technique_common>
                    <perspective>
                        <yfov>35</yfov>
                        <aspect_ratio>0</aspect_ratio>
                        <znear>1</znear>
                        <zfar>1000</zfar>
                    </perspective>
                </technique_common>
            </optics>
        </camera>
    </library_cameras>
    <library_visual_scenes>
        <visual_scene id="ID2">
            <node name="SketchUp">
                <node name="skp_camera_Last_Saved_SketchUp_View">
                    <matrix>0.8707211 0.1081272 -0.4797429 -181.8408 -0.4917771 0.1914458 -0.8494138 -332.6418 0 0.9755291 0.2198704 150.6199 0 0 0 1</matrix>
                    <instance_camera url="#ID1" />
                </node>
                <node id="ID3" name="instance_0">
                    <matrix>1 0 0 0 0 1 0 0 0 0 1 -39.37008 0 0 0 1</matrix>
                    <instance_node url="#ID4" />
                </node>
                <node id="ID15" name="instance_1">
                    <matrix>1 0 0 39.37008 0 1 0 0 0 0 1 -39.37008 0 0 0 1</matrix>
                    <instance_node url="#ID4" />
                </node>
                <node id="ID16" name="instance_2">
                    <matrix>1 0 0 118.1102 0 1 0 0 0 0 1 -39.37008 0 0 0 1</matrix>
                    <instance_node url="#ID4" />
                </node>
                <node id="ID17" name="instance_3">
                    <matrix>1 0 0 39.37008 0 1 0 39.37008 0 0 1 -39.37008 0 0 0 1</matrix>
                    <instance_node url="#ID4" />
                </node>
                <node id="ID18" name="instance_4">
                    <matrix>1 0 0 0 0 1 0 39.37008 0 0 1 -39.37008 0 0 0 1</matrix>
                    <instance_node url="#ID4" />
                </node>
                <node id="ID19" name="instance_5">
                    <matrix>1 0 0 118.1102 0 1 0 39.37008 0 0 1 -39.37008 0 0 0 1</matrix>
                    <instance_node url="#ID4" />
                </node>
                <node id="ID20" name="instance_6">
                    <matrix>1 0 0 39.37008 0 1 0 118.1102 0 0 1 -39.37008 0 0 0 1</matrix>
                    <instance_node url="#ID4" />
                </node>
                <node id="ID21" name="instance_7">
                    <matrix>1 0 0 0 0 1 0 118.1102 0 0 1 -39.37008 0 0 0 1</matrix>
                    <instance_node url="#ID4" />
                </node>
                <node id="ID22" name="instance_8">
                    <matrix>1 0 0 118.1102 0 1 0 118.1102 0 0 1 -39.37008 0 0 0 1</matrix>
                    <instance_node url="#ID4" />
                </node>
                <node id="ID23" name="instance_9">
                    <matrix>1 0 0 39.37008 0 1 0 275.5906 0 0 1 -39.37008 0 0 0 1</matrix>
                    <instance_node url="#ID4" />
                </node>
                <node id="ID24" name="instance_10">
                    <matrix>1 0 0 0 0 1 0 275.5906 0 0 1 -39.37008 0 0 0 1</matrix>
                    <instance_node url="#ID4" />
                </node>
                <node id="ID25" name="instance_11">
                    <matrix>1 0 0 118.1102 0 1 0 275.5906 0 0 1 -39.37008 0 0 0 1</matrix>
                    <instance_node url="#ID4" />
                </node>
                <node id="ID26" name="instance_12">
                    <matrix>1 0 0 0 0 1 0 0 0 0 1 0 0 0 0 1</matrix>
                    <instance_node url="#ID4" />
                </node>
                <node id="ID27" name="instance_13">
                    <matrix>1 0 0 118.1102 0 1 0 0 0 0 1 0 0 0 0 1</matrix>
                    <instance_node url="#ID4" />
                </node>
                <node id="ID28" name="instance_14">
                    <matrix>1 0 0 39.37008 0 1 0 275.5906 0 0 1 0 0 0 0 1</matrix>
                    <instance_node url="#ID4" />
                </node>
                <node id="ID29" name="instance_15">
                    <matrix>1 0 0 0 0 1 0 39.37008 0 0 1 0 0 0 0 1</matrix>
                    <instance_node url="#ID4" />
                </node>
                <node id="ID30" name="instance_16">
                    <matrix>1 0 0 118.1102 0 1 0 275.5906 0 0 1 0 0 0 0 1</matrix>
                    <instance_node url="#ID4" />
                </node>
                <node id="ID31" name="instance_17">
                    <matrix>1 0 0 118.1102 0 1 0 39.37008 0 0 1 0 0 0 0 1</matrix>
                    <instance_node url="#ID4" />
                </node>
                <node id="ID32" name="instance_18">
                    <matrix>1 0 0 0 0 1 0 118.1102 0 0 1 0 0 0 0 1</matrix>
                    <instance_node url="#ID4" />
                </node>
                <node id="ID33" name="instance_19">
                    <matrix>1 0 0 118.1102 0 1 0 118.1102 0 0 1 0 0 0 0 1</matrix>
                    <instance_node url="#ID4" />
                </node>
                <node id="ID34" name="instance_20">
                    <matrix>1 0 0 0 0 1 0 275.5906 0 0 1 0 0 0 0 1</matrix>
                    <instance_node url="#ID4" />
                </node>
                <node id="ID35" name="instance_21">
                    <matrix>1 0 0 0 0 1 0 275.5906 0 0 1 39.37008 0 0 0 1</matrix>
                    <instance_node url="#ID4" />
                </node>
                <node id="ID36" name="instance_22">
                    <matrix>1 0 0 118.1102 0 1 0 275.5906 0 0 1 39.37008 0 0 0 1</matrix>
                    <instance_node url="#ID4" />
                </node>
                <node id="ID37" name="instance_23">
                    <matrix>1 0 0 118.1102 0 1 0 118.1102 0 0 1 39.37008 0 0 0 1</matrix>
                    <instance_node url="#ID4" />
                </node>
                <node id="ID38" name="instance_24">
                    <matrix>1 0 0 0 0 1 0 118.1102 0 0 1 39.37008 0 0 0 1</matrix>
                    <instance_node url="#ID4" />
                </node>
                <node id="ID39" name="instance_25">
                    <matrix>1 0 0 118.1102 0 1 0 0 0 0 1 39.37008 0 0 0 1</matrix>
                    <instance_node url="#ID4" />
                </node>
                <node id="ID40" name="instance_26">
                    <matrix>1 0 0 0 0 1 0 0 0 0 1 39.37008 0 0 0 1</matrix>
                    <instance_node url="#ID4" />
                </node>
                <node id="ID41" name="instance_27">
                    <matrix>1 0 0 0 0 1 0 275.5906 0 0 1 78.74016 0 0 0 1</matrix>
                    <instance_node url="#ID4" />
                </node>
                <node id="ID42" name="instance_28">
                    <matrix>1 0 0 118.1102 0 1 0 275.5906 0 0 1 78.74016 0 0 0 1</matrix>
                    <instance_node url="#ID4" />
                </node>
                <node id="ID43" name="instance_29">
                    <matrix>1 0 0 118.1102 0 1 0 118.1102 0 0 1 78.74016 0 0 0 1</matrix>
                    <instance_node url="#ID4" />
                </node>
                <node id="ID44" name="instance_30">
                    <matrix>1 0 0 118.1102 0 1 0 39.37008 0 0 1 78.74016 0 0 0 1</matrix>
                    <instance_node url="#ID4" />
                </node>
                <node id="ID45" name="instance_31">
                    <matrix>1 0 0 0 0 1 0 118.1102 0 0 1 78.74016 0 0 0 1</matrix>
                    <instance_node url="#ID4" />
                </node>
                <node id="ID46" name="instance_32">
                    <matrix>1 0 0 39.37008 0 1 0 275.5906 0 0 1 78.74016 0 0 0 1</matrix>
                    <instance_node url="#ID4" />
                </node>
                <node id="ID47" name="instance_33">
                    <matrix>1 0 0 0 0 1 0 39.37008 0 0 1 78.74016 0 0 0 1</matrix>
                    <instance_node url="#ID4" />
                </node>
                <node id="ID48" name="instance_34">
                    <matrix>1 0 0 118.1102 0 1 0 0 0 0 1 78.74016 0 0 0 1</matrix>
                    <instance_node url="#ID4" />
                </node>
                <node id="ID49" name="instance_35">
                    <matrix>1 0 0 0 0 1 0 0 0 0 1 78.74016 0 0 0 1</matrix>
                    <instance_node url="#ID4" />
                </node>
                <node id="ID50" name="instance_36">
                    <matrix>1 0 0 39.37008 0 1 0 0 0 0 1 78.74016 0 0 0 1</matrix>
                    <instance_node url="#ID4" />
                </node>
                <node id="ID51" name="instance_37">
                    <matrix>1 0 0 39.37008 0 1 0 0 0 0 1 118.1102 0 0 0 1</matrix>
                    <instance_node url="#ID4" />
                </node>
                <node id="ID52" name="instance_38">
                    <matrix>1 0 0 39.37008 0 1 0 275.5906 0 0 1 118.1102 0 0 0 1</matrix>
                    <instance_node url="#ID4" />
                </node>
                <node id="ID53" name="instance_39">
                    <matrix>1 0 0 39.37008 0 1 0 39.37008 0 0 1 118.1102 0 0 0 1</matrix>
                    <instance_node url="#ID4" />
                </node>
                <node id="ID54" name="instance_40">
                    <matrix>1 0 0 39.37008 0 1 0 118.1102 0 0 1 118.1102 0 0 0 1</matrix>
                    <instance_node url="#ID4" />
                </node>
                <node id="ID55" name="instance_41">
                    <matrix>1 0 0 0 0 1 0 39.37008 0 0 1 39.37008 0 0 0 1</matrix>
                    <instance_node url="#ID56" />
                </node>
                <node id="ID70" name="instance_42">
                    <matrix>1 0 0 118.1102 0 1 0 39.37008 0 0 1 39.37008 0 0 0 1</matrix>
                    <instance_node url="#ID56" />
                </node>
                <node id="ID71" name="instance_43">
                    <matrix>1 0 0 78.74016 0 1 0 196.8504 0 0 1 0 0 0 0 1</matrix>
                    <instance_node url="#ID72" />
                </node>
                <node id="ID81" name="instance_44">
                    <matrix>1 0 0 78.74016 0 1 0 39.37008 0 0 1 0 0 0 0 1</matrix>
                    <instance_node url="#ID82" />
                </node>
                <node id="ID91" name="instance_45">
                    <matrix>1 0 0 118.1102 0 1 0 78.74016 0 0 1 39.37008 0 0 0 1</matrix>
                    <instance_node url="#ID4" />
                </node>
                <node id="ID92" name="instance_46">
                    <matrix>1 0 0 39.37008 0 1 0 78.74016 0 0 1 -39.37008 0 0 0 1</matrix>
                    <instance_node url="#ID4" />
                </node>
                <node id="ID93" name="instance_47">
                    <matrix>1 0 0 118.1102 0 1 0 78.74016 0 0 1 0 0 0 0 1</matrix>
                    <instance_node url="#ID4" />
                </node>
                <node id="ID94" name="instance_48">
                    <matrix>1 0 0 0 0 1 0 78.74016 0 0 1 -39.37008 0 0 0 1</matrix>
                    <instance_node url="#ID4" />
                </node>
                <node id="ID95" name="instance_49">
                    <matrix>1 0 0 118.1102 0 1 0 78.74016 0 0 1 -39.37008 0 0 0 1</matrix>
                    <instance_node url="#ID4" />
                </node>
                <node id="ID96" name="instance_50">
                    <matrix>1 0 0 0 0 1 0 78.74016 0 0 1 0 0 0 0 1</matrix>
                    <instance_node url="#ID4" />
                </node>
                <node id="ID97" name="instance_51">
                    <matrix>1 0 0 118.1102 0 1 0 78.74016 0 0 1 78.74016 0 0 0 1</matrix>
                    <instance_node url="#ID4" />
                </node>
                <node id="ID98" name="instance_52">
                    <matrix>1 0 0 39.37008 0 1 0 78.74016 0 0 1 118.1102 0 0 0 1</matrix>
                    <instance_node url="#ID4" />
                </node>
                <node id="ID99" name="instance_53">
                    <matrix>1 0 0 0 0 1 0 78.74016 0 0 1 39.37008 0 0 0 1</matrix>
                    <instance_node url="#ID4" />
                </node>
                <node id="ID100" name="instance_54">
                    <matrix>1 0 0 0 0 1 0 78.74016 0 0 1 78.74016 0 0 0 1</matrix>
                    <instance_node url="#ID4" />
                </node>
                <node id="ID101" name="instance_55">
                    <matrix>1 0 0 118.1102 0 1 0 157.4803 0 0 1 39.37008 0 0 0 1</matrix>
                    <instance_node url="#ID4" />
                </node>
                <node id="ID102" name="instance_56">
                    <matrix>1 0 0 118.1102 0 1 0 157.4803 0 0 1 -39.37008 0 0 0 1</matrix>
                    <instance_node url="#ID4" />
                </node>
                <node id="ID103" name="instance_57">
                    <matrix>1 0 0 118.1102 0 1 0 157.4803 0 0 1 0 0 0 0 1</matrix>
                    <instance_node url="#ID4" />
                </node>
                <node id="ID104" name="instance_58">
                    <matrix>1 0 0 118.1102 0 1 0 157.4803 0 0 1 78.74016 0 0 0 1</matrix>
                    <instance_node url="#ID4" />
                </node>
                <node id="ID105" name="instance_59">
                    <matrix>1 0 0 78.74016 0 1 0 275.5906 0 0 1 -39.37008 0 0 0 1</matrix>
                    <instance_node url="#ID4" />
                </node>
                <node id="ID106" name="instance_60">
                    <matrix>1 0 0 78.74016 0 1 0 275.5906 0 0 1 78.74016 0 0 0 1</matrix>
                    <instance_node url="#ID4" />
                </node>
                <node id="ID107" name="instance_61">
                    <matrix>1 0 0 78.74016 0 1 0 275.5906 0 0 1 118.1102 0 0 0 1</matrix>
                    <instance_node url="#ID4" />
                </node>
                <node id="ID108" name="instance_62">
                    <matrix>1 0 0 78.74016 0 1 0 275.5906 0 0 1 0 0 0 0 1</matrix>
                    <instance_node url="#ID4" />
                </node>
                <node id="ID109" name="instance_63">
                    <matrix>1 0 0 0 0 1 0 157.4803 0 0 1 -39.37008 0 0 0 1</matrix>
                    <instance_node url="#ID4" />
                </node>
                <node id="ID110" name="instance_64">
                    <matrix>1 0 0 0 0 1 0 157.4803 0 0 1 39.37008 0 0 0 1</matrix>
                    <instance_node url="#ID4" />
                </node>
                <node id="ID111" name="instance_65">
                    <matrix>1 0 0 0 0 1 0 157.4803 0 0 1 78.74016 0 0 0 1</matrix>
                    <instance_node url="#ID4" />
                </node>
                <node id="ID112" name="instance_66">
                    <matrix>1 0 0 0 0 1 0 157.4803 0 0 1 0 0 0 0 1</matrix>
                    <instance_node url="#ID4" />
                </node>
                <node id="ID113" name="instance_67">
                    <matrix>1 0 0 78.74016 0 1 0 0 0 0 1 -39.37008 0 0 0 1</matrix>
                    <instance_node url="#ID4" />
                </node>
                <node id="ID114" name="instance_68">
                    <matrix>1 0 0 78.74016 0 1 0 0 0 0 1 39.37008 0 0 0 1</matrix>
                    <instance_node url="#ID4" />
                </node>
                <node id="ID115" name="instance_69">
                    <matrix>1 0 0 78.74016 0 1 0 0 0 0 1 118.1102 0 0 0 1</matrix>
                    <instance_node url="#ID4" />
                </node>
                <node id="ID116" name="instance_70">
                    <matrix>1 0 0 78.74016 0 1 0 0 0 0 1 78.74016 0 0 0 1</matrix>
                    <instance_node url="#ID4" />
                </node>
                <node id="ID117" name="instance_71">
                    <matrix>1 0 0 78.74016 0 1 0 0 0 0 1 0 0 0 0 1</matrix>
                    <instance_node url="#ID4" />
                </node>
                <node id="ID118" name="instance_72">
                    <matrix>1 0 0 78.74016 0 1 0 78.74016 0 0 1 -39.37008 0 0 0 1</matrix>
                    <instance_node url="#ID4" />
                </node>
                <node id="ID119" name="instance_73">
                    <matrix>1 0 0 78.74016 0 1 0 39.37008 0 0 1 -39.37008 0 0 0 1</matrix>
                    <instance_node url="#ID4" />
                </node>
                <node id="ID120" name="instance_74">
                    <matrix>1 0 0 78.74016 0 1 0 118.1102 0 0 1 -39.37008 0 0 0 1</matrix>
                    <instance_node url="#ID4" />
                </node>
                <node id="ID121" name="instance_75">
                    <matrix>1 0 0 39.37008 0 1 0 157.4803 0 0 1 -39.37008 0 0 0 1</matrix>
                    <instance_node url="#ID4" />
                </node>
                <node id="ID122" name="instance_76">
                    <matrix>1 0 0 78.74016 0 1 0 157.4803 0 0 1 -39.37008 0 0 0 1</matrix>
                    <instance_node url="#ID4" />
                </node>
                <node id="ID123" name="instance_77">
                    <matrix>1 0 0 118.1102 0 1 0 196.8504 0 0 1 -39.37008 0 0 0 1</matrix>
                    <instance_node url="#ID4" />
                </node>
                <node id="ID124" name="instance_78">
                    <matrix>1 0 0 118.1102 0 1 0 196.8504 0 0 1 78.74016 0 0 0 1</matrix>
                    <instance_node url="#ID4" />
                </node>
                <node id="ID125" name="instance_79">
                    <matrix>1 0 0 118.1102 0 1 0 196.8504 0 0 1 39.37008 0 0 0 1</matrix>
                    <instance_node url="#ID4" />
                </node>
                <node id="ID126" name="instance_80">
                    <matrix>1 0 0 0 0 1 0 196.8504 0 0 1 -39.37008 0 0 0 1</matrix>
                    <instance_node url="#ID4" />
                </node>
                <node id="ID127" name="instance_81">
                    <matrix>1 0 0 0 0 1 0 196.8504 0 0 1 39.37008 0 0 0 1</matrix>
                    <instance_node url="#ID4" />
                </node>
                <node id="ID128" name="instance_82">
                    <matrix>1 0 0 0 0 1 0 196.8504 0 0 1 78.74016 0 0 0 1</matrix>
                    <instance_node url="#ID4" />
                </node>
                <node id="ID129" name="instance_83">
                    <matrix>1 0 0 118.1102 0 1 0 196.8504 0 0 1 0 0 0 0 1</matrix>
                    <instance_node url="#ID4" />
                </node>
                <node id="ID130" name="instance_84">
                    <matrix>1 0 0 78.74016 0 1 0 196.8504 0 0 1 -39.37008 0 0 0 1</matrix>
                    <instance_node url="#ID4" />
                </node>
                <node id="ID131" name="instance_85">
                    <matrix>1 0 0 39.37008 0 1 0 196.8504 0 0 1 -39.37008 0 0 0 1</matrix>
                    <instance_node url="#ID4" />
                </node>
                <node id="ID132" name="instance_86">
                    <matrix>1 0 0 0 0 1 0 196.8504 0 0 1 0 0 0 0 1</matrix>
                    <instance_node url="#ID4" />
                </node>
                <node id="ID133" name="instance_87">
                    <matrix>1 0 0 78.74016 0 1 0 157.4803 0 0 1 0 0 0 0 1</matrix>
                    <instance_node url="#ID72" />
                </node>
                <node id="ID134" name="instance_88">
                    <matrix>1 0 0 78.74016 0 1 0 118.1102 0 0 1 0 0 0 0 1</matrix>
                    <instance_node url="#ID72" />
                </node>
                <node id="ID135" name="instance_89">
                    <matrix>1 0 0 78.74016 0 1 0 78.74016 0 0 1 0 0 0 0 1</matrix>
                    <instance_node url="#ID72" />
                </node>
                <node id="ID136" name="instance_90">
                    <matrix>1 0 0 78.74016 0 1 0 275.5906 0 0 1 39.37008 0 0 0 1</matrix>
                    <instance_node url="#ID56" />
                </node>
                <node id="ID137" name="instance_91">
                    <matrix>1 0 0 39.37008 0 1 0 275.5906 0 0 1 39.37008 0 0 0 1</matrix>
                    <instance_node url="#ID56" />
                </node>
                <node id="ID138" name="instance_92">
                    <matrix>1 0 0 78.74016 0 1 0 78.74016 0 0 1 118.1102 0 0 0 1</matrix>
                    <instance_node url="#ID4" />
                </node>
                <node id="ID139" name="instance_93">
                    <matrix>1 0 0 78.74016 0 1 0 39.37008 0 0 1 118.1102 0 0 0 1</matrix>
                    <instance_node url="#ID4" />
                </node>
                <node id="ID140" name="instance_94">
                    <matrix>1 0 0 78.74016 0 1 0 118.1102 0 0 1 118.1102 0 0 0 1</matrix>
                    <instance_node url="#ID4" />
                </node>
                <node id="ID141" name="instance_95">
                    <matrix>1 0 0 39.37008 0 1 0 157.4803 0 0 1 118.1102 0 0 0 1</matrix>
                    <instance_node url="#ID4" />
                </node>
                <node id="ID142" name="instance_96">
                    <matrix>1 0 0 78.74016 0 1 0 157.4803 0 0 1 118.1102 0 0 0 1</matrix>
                    <instance_node url="#ID4" />
                </node>
                <node id="ID143" name="instance_97">
                    <matrix>1 0 0 39.37008 0 1 0 196.8504 0 0 1 118.1102 0 0 0 1</matrix>
                    <instance_node url="#ID4" />
                </node>
                <node id="ID144" name="instance_98">
                    <matrix>1 0 0 78.74016 0 1 0 196.8504 0 0 1 118.1102 0 0 0 1</matrix>
                    <instance_node url="#ID4" />
                </node>
                <node id="ID145" name="instance_99">
                    <matrix>1 0 0 78.74016 0 1 0 236.2205 0 0 1 0 0 0 0 1</matrix>
                    <instance_node url="#ID72" />
                </node>
                <node id="ID146" name="instance_100">
                    <matrix>1 0 0 78.74016 0 1 0 236.2205 0 0 1 118.1102 0 0 0 1</matrix>
                    <instance_node url="#ID4" />
                </node>
                <node id="ID147" name="instance_101">
                    <matrix>1 0 0 39.37008 0 1 0 236.2205 0 0 1 118.1102 0 0 0 1</matrix>
                    <instance_node url="#ID4" />
                </node>
                <node id="ID148" name="instance_102">
                    <matrix>1 0 0 78.74016 0 1 0 236.2205 0 0 1 -39.37008 0 0 0 1</matrix>
                    <instance_node url="#ID4" />
                </node>
                <node id="ID149" name="instance_103">
                    <matrix>1 0 0 0 0 1 0 236.2205 0 0 1 39.37008 0 0 0 1</matrix>
                    <instance_node url="#ID4" />
                </node>
                <node id="ID150" name="instance_104">
                    <matrix>1 0 0 0 0 1 0 236.2205 0 0 1 -39.37008 0 0 0 1</matrix>
                    <instance_node url="#ID4" />
                </node>
                <node id="ID151" name="instance_105">
                    <matrix>1 0 0 39.37008 0 1 0 236.2205 0 0 1 -39.37008 0 0 0 1</matrix>
                    <instance_node url="#ID4" />
                </node>
                <node id="ID152" name="instance_106">
                    <matrix>1 0 0 118.1102 0 1 0 236.2205 0 0 1 78.74016 0 0 0 1</matrix>
                    <instance_node url="#ID4" />
                </node>
                <node id="ID153" name="instance_107">
                    <matrix>1 0 0 118.1102 0 1 0 236.2205 0 0 1 -39.37008 0 0 0 1</matrix>
                    <instance_node url="#ID4" />
                </node>
                <node id="ID154" name="instance_108">
                    <matrix>1 0 0 0 0 1 0 236.2205 0 0 1 0 0 0 0 1</matrix>
                    <instance_node url="#ID4" />
                </node>
                <node id="ID155" name="instance_109">
                    <matrix>1 0 0 0 0 1 0 236.2205 0 0 1 78.74016 0 0 0 1</matrix>
                    <instance_node url="#ID4" />
                </node>
                <node id="ID156" name="instance_110">
                    <matrix>1 0 0 118.1102 0 1 0 236.2205 0 0 1 39.37008 0 0 0 1</matrix>
                    <instance_node url="#ID4" />
                </node>
                <node id="ID157" name="instance_111">
                    <matrix>1 0 0 118.1102 0 1 0 236.2205 0 0 1 0 0 0 0 1</matrix>
                    <instance_node url="#ID4" />
                </node>
                <node id="ID158" name="instance_112">
                    <matrix>1 0 0 39.37008 0 1 0 0 0 0 1 0 0 0 0 1</matrix>
                    <instance_node url="#ID159" />
                </node>
            </node>
        </visual_scene>
    </library_visual_scenes>
    <library_nodes>
        <node id="ID4" name="madera">
            <instance_geometry url="#ID5">
                <bind_material>
                    <technique_common>
                        <instance_material symbol="Material2" target="#ID6">
                            <bind_vertex_input semantic="UVSET0" input_semantic="TEXCOORD" input_set="0" />
                        </instance_material>
                        <instance_material symbol="Material3" target="#ID11">
                            <bind_vertex_input semantic="UVSET0" input_semantic="TEXCOORD" input_set="0" />
                        </instance_material>
                    </technique_common>
                </bind_material>
            </instance_geometry>
        </node>
        <node id="ID56" name="ventana">
            <instance_geometry url="#ID57">
                <bind_material>
                    <technique_common>
                        <instance_material symbol="Material2" target="#ID58">
                            <bind_vertex_input semantic="UVSET0" input_semantic="TEXCOORD" input_set="0" />
                        </instance_material>
                    </technique_common>
                </bind_material>
            </instance_geometry>
        </node>
        <node id="ID72" name="mesa_trabajo_maderero">
            <instance_geometry url="#ID73">
                <bind_material>
                    <technique_common>
                        <instance_material symbol="Material2" target="#ID74">
                            <bind_vertex_input semantic="UVSET0" input_semantic="TEXCOORD" input_set="0" />
                        </instance_material>
                    </technique_common>
                </bind_material>
            </instance_geometry>
        </node>
        <node id="ID82" name="baul">
            <instance_geometry url="#ID83">
                <bind_material>
                    <technique_common>
                        <instance_material symbol="Material2" target="#ID84">
                            <bind_vertex_input semantic="UVSET0" input_semantic="TEXCOORD" input_set="0" />
                        </instance_material>
                    </technique_common>
                </bind_material>
            </instance_geometry>
        </node>
        <node id="ID159" name="puerta">
            <node id="ID160" name="instance_113">
                <matrix>1 0 0 0 0 1 0 0 0 0 1 0 0 0 0 1</matrix>
                <instance_node url="#ID161" />
            </node>
            <node id="ID170" name="instance_114">
                <matrix>1 0 0 0 0 1 0 0 0 0 1 39.37008 0 0 0 1</matrix>
                <instance_node url="#ID171" />
            </node>
        </node>
        <node id="ID161" name="puerta_inf_1">
            <instance_geometry url="#ID162">
                <bind_material>
                    <technique_common>
                        <instance_material symbol="Material2" target="#ID163">
                            <bind_vertex_input semantic="UVSET0" input_semantic="TEXCOORD" input_set="0" />
                        </instance_material>
                    </technique_common>
                </bind_material>
            </instance_geometry>
        </node>
        <node id="ID171" name="puerta_sup_1">
            <instance_geometry url="#ID172">
                <bind_material>
                    <technique_common>
                        <instance_material symbol="Material2" target="#ID173">
                            <bind_vertex_input semantic="UVSET0" input_semantic="TEXCOORD" input_set="0" />
                        </instance_material>
                    </technique_common>
                </bind_material>
            </instance_geometry>
        </node>
    </library_nodes>
    <library_geometries>
        <geometry id="ID5">
            <mesh>
                <source id="ID8">
                    <float_array id="ID13" count="144">39.37008 39.37008 0 39.37008 0 39.37008 39.37008 0 0 39.37008 39.37008 39.37008 39.37008 39.37008 39.37008 39.37008 39.37008 0 39.37008 0 39.37008 39.37008 0 0 39.37008 39.37008 0 0 0 0 0 39.37008 0 39.37008 0 0 39.37008 0 0 39.37008 39.37008 0 0 0 0 0 39.37008 0 0 39.37008 39.37008 39.37008 39.37008 0 0 39.37008 0 39.37008 39.37008 39.37008 39.37008 39.37008 39.37008 0 39.37008 39.37008 39.37008 39.37008 0 0 39.37008 0 39.37008 0 39.37008 0 39.37008 39.37008 0 0 39.37008 39.37008 39.37008 39.37008 39.37008 39.37008 39.37008 39.37008 0 39.37008 0 39.37008 39.37008 0 0 39.37008 39.37008 0 39.37008 0 0 0 39.37008 0 0 0 0 39.37008 0 0 39.37008 39.37008 0 39.37008 0 0 0 39.37008 0 0 0 39.37008 39.37008 0 0 0 0 0 39.37008 0 39.37008 0 0 39.37008 0 0 39.37008 39.37008 0 0 0 0 0 39.37008</float_array>
                    <technique_common>
                        <accessor count="48" source="#ID13" stride="3">
                            <param name="X" type="float" />
                            <param name="Y" type="float" />
                            <param name="Z" type="float" />
                        </accessor>
                    </technique_common>
                </source>
                <source id="ID9">
                    <float_array id="ID14" count="144">1 0 0 1 0 0 1 0 0 1 0 0 -1 -0 -0 -1 -0 -0 -1 -0 -0 -1 -0 -0 0 0 -1 0 0 -1 0 0 -1 0 0 -1 -0 -0 1 -0 -0 1 -0 -0 1 -0 -0 1 0 1 0 0 1 0 0 1 0 0 1 0 -0 -1 -0 -0 -1 -0 -0 -1 -0 -0 -1 -0 0 0 1 0 0 1 0 0 1 0 0 1 -0 -0 -1 -0 -0 -1 -0 -0 -1 -0 -0 -1 0 -1 0 0 -1 0 0 -1 0 0 -1 0 -0 1 -0 -0 1 -0 -0 1 -0 -0 1 -0 -1 0 0 -1 0 0 -1 0 0 -1 0 0 1 -0 -0 1 -0 -0 1 -0 -0 1 -0 -0</float_array>
                    <technique_common>
                        <accessor count="48" source="#ID14" stride="3">
                            <param name="X" type="float" />
                            <param name="Y" type="float" />
                            <param name="Z" type="float" />
                        </accessor>
                    </technique_common>
                </source>
                <vertices id="ID10">
                    <input semantic="POSITION" source="#ID8" />
                    <input semantic="NORMAL" source="#ID9" />
                </vertices>
                <triangles count="12" material="Material2">
                    <input offset="0" semantic="VERTEX" source="#ID10" />
                    <p>0 1 2 1 0 3 8 9 10 9 8 11 16 17 18 17 16 19 24 25 26 25 24 27 32 33 34 33 32 35 40 41 42 41 40 43</p>
                </triangles>
                <triangles count="12" material="Material3">
                    <input offset="0" semantic="VERTEX" source="#ID10" />
                    <p>4 5 6 7 6 5 12 13 14 15 14 13 20 21 22 23 22 21 28 29 30 31 30 29 36 37 38 39 38 37 44 45 46 47 46 45</p>
                </triangles>
            </mesh>
        </geometry>
        <geometry id="ID57">
            <mesh>
                <source id="ID63">
                    <float_array id="ID67" count="144">39.37008 39.37008 0 39.37008 0 39.37008 39.37008 0 0 39.37008 39.37008 39.37008 39.37008 39.37008 39.37008 39.37008 39.37008 0 39.37008 0 39.37008 39.37008 0 0 39.37008 39.37008 0 0 0 0 0 39.37008 0 39.37008 0 0 39.37008 0 0 39.37008 39.37008 0 0 0 0 0 39.37008 0 0 39.37008 39.37008 39.37008 39.37008 0 0 39.37008 0 39.37008 39.37008 39.37008 39.37008 39.37008 39.37008 0 39.37008 39.37008 39.37008 39.37008 0 0 39.37008 0 39.37008 0 39.37008 0 39.37008 39.37008 0 0 39.37008 39.37008 39.37008 39.37008 39.37008 39.37008 39.37008 39.37008 0 39.37008 0 39.37008 39.37008 0 0 39.37008 39.37008 0 39.37008 0 0 0 39.37008 0 0 0 0 39.37008 0 0 39.37008 39.37008 0 39.37008 0 0 0 39.37008 0 0 0 39.37008 39.37008 0 0 0 0 0 39.37008 0 39.37008 0 0 39.37008 0 0 39.37008 39.37008 0 0 0 0 0 39.37008</float_array>
                    <technique_common>
                        <accessor count="48" source="#ID67" stride="3">
                            <param name="X" type="float" />
                            <param name="Y" type="float" />
                            <param name="Z" type="float" />
                        </accessor>
                    </technique_common>
                </source>
                <source id="ID64">
                    <float_array id="ID68" count="144">1 0 0 1 0 0 1 0 0 1 0 0 -1 -0 -0 -1 -0 -0 -1 -0 -0 -1 -0 -0 0 0 -1 0 0 -1 0 0 -1 0 0 -1 -0 -0 1 -0 -0 1 -0 -0 1 -0 -0 1 0 1 0 0 1 0 0 1 0 0 1 0 -0 -1 -0 -0 -1 -0 -0 -1 -0 -0 -1 -0 0 0 1 0 0 1 0 0 1 0 0 1 -0 -0 -1 -0 -0 -1 -0 -0 -1 -0 -0 -1 0 -1 0 0 -1 0 0 -1 0 0 -1 0 -0 1 -0 -0 1 -0 -0 1 -0 -0 1 -0 -1 0 0 -1 0 0 -1 0 0 -1 0 0 1 -0 -0 1 -0 -0 1 -0 -0 1 -0 -0</float_array>
                    <technique_common>
                        <accessor count="48" source="#ID68" stride="3">
                            <param name="X" type="float" />
                            <param name="Y" type="float" />
                            <param name="Z" type="float" />
                        </accessor>
                    </technique_common>
                </source>
                <source id="ID66">
                    <float_array id="ID69" count="12">1.64042 0 0 1.64042 0 0 1.64042 1.64042 -1.64042 1.64042 -1.64042 0</float_array>
                    <technique_common>
                        <accessor count="6" source="#ID69" stride="2">
                            <param name="S" type="float" />
                            <param name="T" type="float" />
                        </accessor>
                    </technique_common>
                </source>
                <vertices id="ID65">
                    <input semantic="POSITION" source="#ID63" />
                    <input semantic="NORMAL" source="#ID64" />
                </vertices>
                <triangles count="24" material="Material2">
                    <input offset="0" semantic="VERTEX" source="#ID65" />
                    <input offset="1" semantic="TEXCOORD" source="#ID66" />
                    <p>0 0 1 1 2 2 1 1 0 0 3 3 4 3 5 0 6 1 7 2 6 1 5 0 8 4 9 2 10 1 9 2 8 4 11 5 12 5 13 4 14 2 15 1 14 2 13 4 16 1 17 5 18 2 17 5 16 1 19 4 20 4 21 1 22 5 23 2 22 5 21 1 24 0 25 1 26 2 25 1 24 0 27 3 28 3 29 0 30 1 31 2 30 1 29 0 32 3 33 2 34 0 33 2 32 3 35 1 36 1 37 3 38 2 39 0 38 2 37 3 40 4 41 2 42 1 41 2 40 4 43 5 44 5 45 4 46 2 47 1 46 2 45 4</p>
                </triangles>
            </mesh>
        </geometry>
        <geometry id="ID73">
            <mesh>
                <source id="ID76">
                    <float_array id="ID79" count="144">39.37008 39.37008 0 39.37008 0 39.37008 39.37008 0 0 39.37008 39.37008 39.37008 39.37008 39.37008 39.37008 39.37008 39.37008 0 39.37008 0 39.37008 39.37008 0 0 39.37008 39.37008 0 0 0 0 0 39.37008 0 39.37008 0 0 39.37008 0 0 39.37008 39.37008 0 0 0 0 0 39.37008 0 0 39.37008 39.37008 39.37008 39.37008 0 0 39.37008 0 39.37008 39.37008 39.37008 39.37008 39.37008 39.37008 0 39.37008 39.37008 39.37008 39.37008 0 0 39.37008 0 39.37008 0 39.37008 0 39.37008 39.37008 0 0 39.37008 39.37008 39.37008 39.37008 39.37008 39.37008 39.37008 39.37008 0 39.37008 0 39.37008 39.37008 0 0 39.37008 39.37008 0 39.37008 0 0 0 39.37008 0 0 0 0 39.37008 0 0 39.37008 39.37008 0 39.37008 0 0 0 39.37008 0 0 0 39.37008 39.37008 0 0 0 0 0 39.37008 0 39.37008 0 0 39.37008 0 0 39.37008 39.37008 0 0 0 0 0 39.37008</float_array>
                    <technique_common>
                        <accessor count="48" source="#ID79" stride="3">
                            <param name="X" type="float" />
                            <param name="Y" type="float" />
                            <param name="Z" type="float" />
                        </accessor>
                    </technique_common>
                </source>
                <source id="ID77">
                    <float_array id="ID80" count="144">1 0 0 1 0 0 1 0 0 1 0 0 -1 -0 -0 -1 -0 -0 -1 -0 -0 -1 -0 -0 0 0 -1 0 0 -1 0 0 -1 0 0 -1 -0 -0 1 -0 -0 1 -0 -0 1 -0 -0 1 0 1 0 0 1 0 0 1 0 0 1 0 -0 -1 -0 -0 -1 -0 -0 -1 -0 -0 -1 -0 0 0 1 0 0 1 0 0 1 0 0 1 -0 -0 -1 -0 -0 -1 -0 -0 -1 -0 -0 -1 0 -1 0 0 -1 0 0 -1 0 0 -1 0 -0 1 -0 -0 1 -0 -0 1 -0 -0 1 -0 -1 0 0 -1 0 0 -1 0 0 -1 0 0 1 -0 -0 1 -0 -0 1 -0 -0 1 -0 -0</float_array>
                    <technique_common>
                        <accessor count="48" source="#ID80" stride="3">
                            <param name="X" type="float" />
                            <param name="Y" type="float" />
                            <param name="Z" type="float" />
                        </accessor>
                    </technique_common>
                </source>
                <vertices id="ID78">
                    <input semantic="POSITION" source="#ID76" />
                    <input semantic="NORMAL" source="#ID77" />
                </vertices>
                <triangles count="24" material="Material2">
                    <input offset="0" semantic="VERTEX" source="#ID78" />
                    <p>0 1 2 1 0 3 4 5 6 7 6 5 8 9 10 9 8 11 12 13 14 15 14 13 16 17 18 17 16 19 20 21 22 23 22 21 24 25 26 25 24 27 28 29 30 31 30 29 32 33 34 33 32 35 36 37 38 39 38 37 40 41 42 41 40 43 44 45 46 47 46 45</p>
                </triangles>
            </mesh>
        </geometry>
        <geometry id="ID83">
            <mesh>
                <source id="ID86">
                    <float_array id="ID89" count="144">39.37008 39.37008 0 39.37008 0 39.37008 39.37008 0 0 39.37008 39.37008 39.37008 39.37008 39.37008 39.37008 39.37008 39.37008 0 39.37008 0 39.37008 39.37008 0 0 39.37008 39.37008 0 0 0 0 0 39.37008 0 39.37008 0 0 39.37008 0 0 39.37008 39.37008 0 0 0 0 0 39.37008 0 0 39.37008 39.37008 39.37008 39.37008 0 0 39.37008 0 39.37008 39.37008 39.37008 39.37008 39.37008 39.37008 0 39.37008 39.37008 39.37008 39.37008 0 0 39.37008 0 39.37008 0 39.37008 0 39.37008 39.37008 0 0 39.37008 39.37008 39.37008 39.37008 39.37008 39.37008 39.37008 39.37008 0 39.37008 0 39.37008 39.37008 0 0 39.37008 39.37008 0 39.37008 0 0 0 39.37008 0 0 0 0 39.37008 0 0 39.37008 39.37008 0 39.37008 0 0 0 39.37008 0 0 0 39.37008 39.37008 0 0 0 0 0 39.37008 0 39.37008 0 0 39.37008 0 0 39.37008 39.37008 0 0 0 0 0 39.37008</float_array>
                    <technique_common>
                        <accessor count="48" source="#ID89" stride="3">
                            <param name="X" type="float" />
                            <param name="Y" type="float" />
                            <param name="Z" type="float" />
                        </accessor>
                    </technique_common>
                </source>
                <source id="ID87">
                    <float_array id="ID90" count="144">1 0 0 1 0 0 1 0 0 1 0 0 -1 -0 -0 -1 -0 -0 -1 -0 -0 -1 -0 -0 0 0 -1 0 0 -1 0 0 -1 0 0 -1 -0 -0 1 -0 -0 1 -0 -0 1 -0 -0 1 0 1 0 0 1 0 0 1 0 0 1 0 -0 -1 -0 -0 -1 -0 -0 -1 -0 -0 -1 -0 0 0 1 0 0 1 0 0 1 0 0 1 -0 -0 -1 -0 -0 -1 -0 -0 -1 -0 -0 -1 0 -1 0 0 -1 0 0 -1 0 0 -1 0 -0 1 -0 -0 1 -0 -0 1 -0 -0 1 -0 -1 0 0 -1 0 0 -1 0 0 -1 0 0 1 -0 -0 1 -0 -0 1 -0 -0 1 -0 -0</float_array>
                    <technique_common>
                        <accessor count="48" source="#ID90" stride="3">
                            <param name="X" type="float" />
                            <param name="Y" type="float" />
                            <param name="Z" type="float" />
                        </accessor>
                    </technique_common>
                </source>
                <vertices id="ID88">
                    <input semantic="POSITION" source="#ID86" />
                    <input semantic="NORMAL" source="#ID87" />
                </vertices>
                <triangles count="24" material="Material2">
                    <input offset="0" semantic="VERTEX" source="#ID88" />
                    <p>0 1 2 1 0 3 4 5 6 7 6 5 8 9 10 9 8 11 12 13 14 15 14 13 16 17 18 17 16 19 20 21 22 23 22 21 24 25 26 25 24 27 28 29 30 31 30 29 32 33 34 33 32 35 36 37 38 39 38 37 40 41 42 41 40 43 44 45 46 47 46 45</p>
                </triangles>
            </mesh>
        </geometry>
        <geometry id="ID162">
            <mesh>
                <source id="ID165">
                    <float_array id="ID168" count="144">39.37008 3.937008 0 39.37008 0 39.37008 39.37008 0 0 39.37008 3.937008 39.37008 39.37008 3.937008 39.37008 39.37008 3.937008 0 39.37008 0 39.37008 39.37008 0 0 39.37008 3.937008 0 0 0 0 0 3.937008 0 39.37008 0 0 39.37008 0 0 39.37008 3.937008 0 0 0 0 0 3.937008 0 0 3.937008 39.37008 39.37008 3.937008 0 0 3.937008 0 39.37008 3.937008 39.37008 39.37008 3.937008 39.37008 0 3.937008 39.37008 39.37008 3.937008 0 0 3.937008 0 39.37008 0 39.37008 0 3.937008 39.37008 0 0 39.37008 39.37008 3.937008 39.37008 39.37008 3.937008 39.37008 39.37008 0 39.37008 0 3.937008 39.37008 0 0 39.37008 39.37008 0 39.37008 0 0 0 39.37008 0 0 0 0 39.37008 0 0 39.37008 39.37008 0 39.37008 0 0 0 39.37008 0 0 0 3.937008 39.37008 0 0 0 0 0 39.37008 0 3.937008 0 0 3.937008 0 0 3.937008 39.37008 0 0 0 0 0 39.37008</float_array>
                    <technique_common>
                        <accessor count="48" source="#ID168" stride="3">
                            <param name="X" type="float" />
                            <param name="Y" type="float" />
                            <param name="Z" type="float" />
                        </accessor>
                    </technique_common>
                </source>
                <source id="ID166">
                    <float_array id="ID169" count="144">1 0 0 1 0 0 1 0 0 1 0 0 -1 -0 -0 -1 -0 -0 -1 -0 -0 -1 -0 -0 0 0 -1 0 0 -1 0 0 -1 0 0 -1 -0 -0 1 -0 -0 1 -0 -0 1 -0 -0 1 0 1 0 0 1 0 0 1 0 0 1 0 -0 -1 -0 -0 -1 -0 -0 -1 -0 -0 -1 -0 0 0 1 0 0 1 0 0 1 0 0 1 -0 -0 -1 -0 -0 -1 -0 -0 -1 -0 -0 -1 0 -1 0 0 -1 0 0 -1 0 0 -1 0 -0 1 -0 -0 1 -0 -0 1 -0 -0 1 -0 -1 0 0 -1 0 0 -1 0 0 -1 0 0 1 -0 -0 1 -0 -0 1 -0 -0 1 -0 -0</float_array>
                    <technique_common>
                        <accessor count="48" source="#ID169" stride="3">
                            <param name="X" type="float" />
                            <param name="Y" type="float" />
                            <param name="Z" type="float" />
                        </accessor>
                    </technique_common>
                </source>
                <vertices id="ID167">
                    <input semantic="POSITION" source="#ID165" />
                    <input semantic="NORMAL" source="#ID166" />
                </vertices>
                <triangles count="24" material="Material2">
                    <input offset="0" semantic="VERTEX" source="#ID167" />
                    <p>0 1 2 1 0 3 4 5 6 7 6 5 8 9 10 9 8 11 12 13 14 15 14 13 16 17 18 17 16 19 20 21 22 23 22 21 24 25 26 25 24 27 28 29 30 31 30 29 32 33 34 33 32 35 36 37 38 39 38 37 40 41 42 41 40 43 44 45 46 47 46 45</p>
                </triangles>
            </mesh>
        </geometry>
        <geometry id="ID172">
            <mesh>
                <source id="ID175">
                    <float_array id="ID178" count="144">39.37008 3.937008 0 39.37008 0 39.37008 39.37008 0 0 39.37008 3.937008 39.37008 39.37008 3.937008 39.37008 39.37008 3.937008 0 39.37008 0 39.37008 39.37008 0 0 39.37008 3.937008 0 0 0 0 0 3.937008 0 39.37008 0 0 39.37008 0 0 39.37008 3.937008 0 0 0 0 0 3.937008 0 0 3.937008 39.37008 39.37008 3.937008 0 0 3.937008 0 39.37008 3.937008 39.37008 39.37008 3.937008 39.37008 0 3.937008 39.37008 39.37008 3.937008 0 0 3.937008 0 39.37008 0 39.37008 0 3.937008 39.37008 0 0 39.37008 39.37008 3.937008 39.37008 39.37008 3.937008 39.37008 39.37008 0 39.37008 0 3.937008 39.37008 0 0 39.37008 39.37008 0 39.37008 0 0 0 39.37008 0 0 0 0 39.37008 0 0 39.37008 39.37008 0 39.37008 0 0 0 39.37008 0 0 0 3.937008 39.37008 0 0 0 0 0 39.37008 0 3.937008 0 0 3.937008 0 0 3.937008 39.37008 0 0 0 0 0 39.37008</float_array>
                    <technique_common>
                        <accessor count="48" source="#ID178" stride="3">
                            <param name="X" type="float" />
                            <param name="Y" type="float" />
                            <param name="Z" type="float" />
                        </accessor>
                    </technique_common>
                </source>
                <source id="ID176">
                    <float_array id="ID179" count="144">1 0 0 1 0 0 1 0 0 1 0 0 -1 -0 -0 -1 -0 -0 -1 -0 -0 -1 -0 -0 0 0 -1 0 0 -1 0 0 -1 0 0 -1 -0 -0 1 -0 -0 1 -0 -0 1 -0 -0 1 0 1 0 0 1 0 0 1 0 0 1 0 -0 -1 -0 -0 -1 -0 -0 -1 -0 -0 -1 -0 0 0 1 0 0 1 0 0 1 0 0 1 -0 -0 -1 -0 -0 -1 -0 -0 -1 -0 -0 -1 0 -1 0 0 -1 0 0 -1 0 0 -1 0 -0 1 -0 -0 1 -0 -0 1 -0 -0 1 -0 -1 0 0 -1 0 0 -1 0 0 -1 0 0 1 -0 -0 1 -0 -0 1 -0 -0 1 -0 -0</float_array>
                    <technique_common>
                        <accessor count="48" source="#ID179" stride="3">
                            <param name="X" type="float" />
                            <param name="Y" type="float" />
                            <param name="Z" type="float" />
                        </accessor>
                    </technique_common>
                </source>
                <vertices id="ID177">
                    <input semantic="POSITION" source="#ID175" />
                    <input semantic="NORMAL" source="#ID176" />
                </vertices>
                <triangles count="24" material="Material2">
                    <input offset="0" semantic="VERTEX" source="#ID177" />
                    <p>0 1 2 1 0 3 4 5 6 7 6 5 8 9 10 9 8 11 12 13 14 15 14 13 16 17 18 17 16 19 20 21 22 23 22 21 24 25 26 25 24 27 28 29 30 31 30 29 32 33 34 33 32 35 36 37 38 39 38 37 40 41 42 41 40 43 44 45 46 47 46 45</p>
                </triangles>
            </mesh>
        </geometry>
    </library_geometries>
    <library_materials>
        <material id="ID6" name="Color_D07">
            <instance_effect url="#ID7" />
        </material>
        <material id="ID11" name="Color_M02">
            <instance_effect url="#ID12" />
        </material>
        <material id="ID58" name="Translucent_Glass_Tinted">
            <instance_effect url="#ID59" />
        </material>
        <material id="ID74" name="Color_G08">
            <instance_effect url="#ID75" />
        </material>
        <material id="ID84" name="Color_D08">
            <instance_effect url="#ID85" />
        </material>
        <material id="ID163" name="Color_C07">
            <instance_effect url="#ID164" />
        </material>
        <material id="ID173" name="Color_C06">
            <instance_effect url="#ID174" />
        </material>
    </library_materials>
    <library_effects>
        <effect id="ID7">
            <profile_COMMON>
                <technique sid="COMMON">
                    <lambert>
                        <diffuse>
                            <color>0.6 0.4470588 0 1</color>
                        </diffuse>
                    </lambert>
                </technique>
            </profile_COMMON>
        </effect>
        <effect id="ID12">
            <profile_COMMON>
                <technique sid="COMMON">
                    <lambert>
                        <diffuse>
                            <color>0.7764706 0.7764706 0.7764706 1</color>
                        </diffuse>
                    </lambert>
                </technique>
            </profile_COMMON>
        </effect>
        <effect id="ID59">
            <profile_COMMON>
                <newparam sid="ID61">
                    <surface type="2D">
                        <init_from>ID60</init_from>
                    </surface>
                </newparam>
                <newparam sid="ID62">
                    <sampler2D>
                        <source>ID61</source>
                    </sampler2D>
                </newparam>
                <technique sid="COMMON">
                    <lambert>
                        <diffuse>
                            <texture texture="ID62" texcoord="UVSET0" />
                        </diffuse>
                        <transparent opaque="RGB_ZERO">
                            <color>0.52 0.52 0.52 1</color>
                        </transparent>
                        <transparency>
                            <float>1</float>
                        </transparency>
                    </lambert>
                </technique>
            </profile_COMMON>
        </effect>
        <effect id="ID75">
            <profile_COMMON>
                <technique sid="COMMON">
                    <lambert>
                        <diffuse>
                            <color>0 0.4 0 1</color>
                        </diffuse>
                    </lambert>
                </technique>
            </profile_COMMON>
        </effect>
        <effect id="ID85">
            <profile_COMMON>
                <technique sid="COMMON">
                    <lambert>
                        <diffuse>
                            <color>0.4 0.2980392 0 1</color>
                        </diffuse>
                    </lambert>
                </technique>
            </profile_COMMON>
        </effect>
        <effect id="ID164">
            <profile_COMMON>
                <technique sid="COMMON">
                    <lambert>
                        <diffuse>
                            <color>0.6 0.2980392 0 1</color>
                        </diffuse>
                    </lambert>
                </technique>
            </profile_COMMON>
        </effect>
        <effect id="ID174">
            <profile_COMMON>
                <technique sid="COMMON">
                    <lambert>
                        <diffuse>
                            <color>0.8 0.4 0 1</color>
                        </diffuse>
                    </lambert>
                </technique>
            </profile_COMMON>
        </effect>
    </library_effects>
    <library_images>
        <image id="ID60">
            <init_from>puesto_maderero/Translucent_Glass_Tinted.jpg</init_from>
        </image>
    </library_images>
    <scene>
        <instance_visual_scene url="#ID2" />
    </scene>
</COLLADA>
