# Alias OBJ Model File
# Exported from SketchUp, (c) 2000-2012 Trimble Navigation Limited
# File units = meters

mtllib Rampa_CtN.mtl

g Mesh1 Cuna_bajo1 Group1 Model

usemtl Color_K06
v 1 1.08287e-15 -1
vt 27.8388 22.7303
vn -0.408248 0.816497 0.408248
v 1 0.5 -2
vt -1.17262e-13 56.8258
v 0 1.08287e-15 -2
vt -27.8388 22.7303
f 1/1/1 2/2/1 3/3/1

vt -5.68434e-14 0
vn 1 0 -1.44382e-15
v 1 1.08287e-15 -2
vt 39.3701 0
vt 39.3701 19.685
f 1/4/2 4/5/2 2/6/2

vt 0 39.3701
vn 0 -1 -0
vt -39.3701 39.3701
vt -39.3701 0
f 3/7/3 4/8/3 1/9/3

vt 0 0
vn 0 0 -1
vt -39.3701 19.685
f 3/10/4 2/11/4 4/9/4

g Mesh2 Cuna_central1 Group1 Model

usemtl Color_G03
v 1 3.60956e-16 -2
vn 1.80478e-16 -1 1.80478e-16
v 2 7.21911e-16 -2
v 2 7.21911e-16 -1
vt -39.3701 -1.28237e-30
v 1 7.21911e-16 -1
vt -2.56474e-30 -2.56474e-30
f 5/7/5 6/8/5 7/12/5 8/13/5 

v 2 1 -2
vn -2.16573e-16 1.44382e-16 -1
vt -39.3701 8.52651e-15
vt -8.52651e-15 -5.68434e-15
v 1 0.5 -2
vt -8.52651e-15 19.685
f 9/8/6 6/14/6 5/15/6 10/16/6 

vt 39.3701 1.42109e-14
vn 1 1.37719e-31 -2.16573e-15
vt 39.3701 39.3701
v 2 0.5 -1
vt -8.52651e-14 19.685
vt -8.52651e-14 1.42109e-14
f 6/17/7 9/18/7 11/19/7 7/20/7 

vt -27.8388 34.0955
vt 0 8.20464e-15
vt 27.8388 34.0955
vt -1.45661e-13 68.191
f 10/21/1 8/22/1 11/23/1 9/24/1 

vn -1 0 -0
vt 0 1.42109e-14
f 5/9/8 8/25/8 10/11/8

vn 0 0 1
f 8/25/9 7/17/9 11/6/9

g Mesh3 Cuna_lat_der1 Group1 Model

usemtl Color_D03
v 2 3.60956e-16 -0
vt 4.01944e-14 1.42109e-14
vn 0.707107 0 0.707107
v 3 0 -1
vt 55.6777 0
v 3 1 -1
vt 55.6777 39.3701
f 12/26/10 13/27/10 14/28/10

v 2 3.60956e-16 -1
vt 5.12949e-30 39.3701
vn -3.60956e-16 -1 5.16448e-31
vt -5.68434e-14 -7.33917e-45
f 15/29/11 13/8/11 12/30/11

v 2 0.5 -1
vt 0 19.685
f 15/25/4 16/31/4 14/8/4 13/9/4 

vn -1 -5.16448e-31 1.44382e-15
vt -39.3701 1.42109e-14
vt 8.20718e-29 1.42109e-14
f 16/11/12 15/32/12 12/33/12

vt 4.01944e-14 4.10232e-14
vt 9.48305e-14 68.191
f 12/34/1 14/35/1 16/21/1

g Mesh4 Cuna_lat_izq1 Group1 Model

usemtl Color_H04
v 1 1 -3
vt -2.5115e-13 68.191
v 0 1.44382e-15 -2
vt -1.00486e-14 1.64093e-14
v 1 0.5 -2
f 17/36/1 18/37/1 19/23/1

v 1 1.08287e-15 -3
vt -55.6777 2.52435e-29
vn -0.707107 -2.0558e-15 -0.707107
vt -1.00486e-14 1.42109e-14
vt -55.6777 39.3701
f 20/38/13 18/39/13 17/40/13

v 1 1.08287e-15 -2
vn -3.60956e-16 -1 -0
vt 5.12949e-30 1.42109e-14
f 21/32/14 18/41/14 20/8/14

vt -4.58698e-45 1.42109e-14
vn -3.2278e-31 -7.21911e-16 1
vt 39.3701 -1.0259e-29
f 18/42/15 21/43/15 19/6/15

vt 39.3701 -9.09495e-14
vn 1 2.31012e-15 -8.66294e-16
vt -3.41061e-14 19.685
vt -1.98952e-14 -9.09495e-14
f 20/44/16 17/18/16 19/45/16 21/46/16 

g Mesh5 Cuna_bajo2 Group1 Model

usemtl Color_K06
v 2 1.08287e-15 -0
v 2 0.5 -1
v 1 1.08287e-15 -1
f 22/1/1 23/2/1 24/3/1

v 2 1.08287e-15 -1
f 22/4/2 25/5/2 23/6/2

f 24/7/3 25/8/3 22/9/3

f 24/10/4 23/11/4 25/9/4

g Mesh6 Cuna_arriba1 Group1 Model

usemtl Color_C03
v 2 1.08287e-15 -2
vn -1 0 2.16573e-15
v 2 1.08287e-15 -1
vt 1.84662e-28 1.42109e-14
v 2 0.5 -1
vt 1.84662e-28 19.685
v 2 1 -2
f 26/32/17 27/47/17 28/48/17 29/8/17 

v 3 7.21911e-16 -2
vn -3.60956e-16 -1 3.83884e-31
v 3 7.21911e-16 -1
vt -39.3701 -5.45531e-45
vt -8.52651e-14 -5.45531e-45
f 30/8/18 31/49/18 27/50/18 26/29/18 

vn 1 0 -0
v 3 1 -2
v 3 1 -1
f 31/10/19 30/5/19 32/18/19 33/7/19 

f 30/9/4 26/25/4 29/7/4 32/8/4 

vn -3.60956e-16 1 3.2278e-32
vt 1.42109e-14 39.3701
vt 39.3701 1.27079e-30
f 32/18/20 29/51/20 33/52/20

vt 27.8388 45.4607
vt -27.8388 45.4607
vt 6.01094e-14 11.3652
f 33/53/1 29/54/1 28/55/1

vt 8.52651e-14 1.42109e-14
vt 8.52651e-14 19.685
f 27/56/9 31/5/9 33/18/9 28/57/9 

g Mesh7 Cuna_arriba2 Group1 Model

v 1 3.60956e-16 -3
v 1 3.60956e-16 -2
v 1 0.5 -2
v 1 1 -3
f 34/32/17 35/47/17 36/48/17 37/8/17 

v 2 0 -3
v 2 0 -2
f 38/8/18 39/49/18 35/50/18 34/29/18 

v 2 1 -3
f 39/10/19 38/5/19 40/18/19 9/7/19 

f 38/9/4 34/25/4 37/7/4 40/8/4 

f 40/18/20 37/51/20 9/52/20

f 9/53/1 37/54/1 36/55/1

f 35/56/9 39/5/9 9/18/9 36/57/9 

g Mesh8 diag_lat1 Model

usemtl Color_A03
v 3 -7.21911e-16 -2
vt -39.3701 1.39282e-45
vn -1 9.8011e-32 3.60956e-16
v 3 -3.60956e-16 -1
v 3 1 -1
vt -1.42109e-14 39.3701
v 3 1 -2
f 41/58/21 42/41/21 43/59/21 44/8/21 

vt -1.42109e-14 -5.12949e-30
vn 3.2278e-32 -1 3.60956e-16
v 4 -7.21911e-16 -2
f 42/60/22 41/7/22 45/8/22

vn 0 -3.60956e-16 -1
v 4 1 -2
f 45/32/23 41/25/23 44/7/23 46/8/23 

vt 1.27079e-30 39.3701
vn -3.2278e-32 1 -3.60956e-16
vt 1.42109e-14 -6.31089e-30
f 44/61/24 43/62/24 46/18/24

vt 1.00486e-14 1.42109e-14
vn 0.707107 2.55234e-16 0.707107
vt 55.6777 -1.57772e-30
vt 2.00972e-14 39.3701
f 42/63/25 45/64/25 46/28/25 43/65/25 

g Mesh9 diag_lat2 Model

v 2 -7.21911e-16 -3
vn 1 9.8011e-32 -1.50988e-12
v 2 -3.60956e-16 -4
v 2 1 -4
v 2 1 -3
f 47/58/26 48/41/26 49/59/26 50/8/26 

vn -5.44904e-28 -1 -3.60956e-16
v 1 -7.21911e-16 -3
f 48/60/27 47/7/27 51/8/27

vn 1.50952e-12 -3.60956e-16 1
v 1 1 -3
f 51/32/28 47/25/28 50/7/28 52/8/28 

vn 5.44904e-28 1 3.60956e-16
f 50/61/29 49/62/29 52/18/29

vn -0.707107 2.55234e-16 -0.707107
f 48/63/30 51/64/30 52/28/30 49/65/30 

